<?xml version="1.0" encoding="UTF-8" standalone="no"?>
<!DOCTYPE svg PUBLIC "-//W3C//DTD SVG 1.1//EN" "http://www.w3.org/Graphics/SVG/1.1/DTD/svg11.dtd">
<svg version="1.1" xmlns="http://www.w3.org/2000/svg" xmlns:xlink="http://www.w3.org/1999/xlink" preserveAspectRatio="xMidYMid meet" viewBox="47.466 69.53236231778236 106.93100000000004 170.10063768221767" width="102.93" height="166.1"><defs><path d="M96.28 124.37L77.77 104.65C74.63 107.5 72.88 109.09 72.53 109.41C72.53 109.41 89.82 136.09 93.86 136.84C97.89 137.6 109.88 129.39 109.88 129.39C110.01 128.06 110.7 121.4 111.93 109.41L96.28 124.37Z" id="cpzJhHMKX"></path><path d="M108.32 77.09C108.32 77.09 105.99 99 107.66 101.5C109.34 104 115.66 104.74 115.66 104.74C115.66 104.74 117.4 104.56 115.79 106.77C114.18 108.98 119.33 110.95 119.33 110.95C119.81 110.62 122.21 108.95 126.53 105.96C128.02 89.59 128.84 80.5 129.01 78.68C129.01 78.68 122.12 65.57 108.32 77.09" id="a1IXHa5Jah"></path><path d="M100.36 156.43C100.37 154.36 100.43 152.3 100.5 150.24C100.51 150.13 100.51 150.02 100.52 149.92C100.75 149.1 100.94 148.28 101.15 147.47C105.22 145.94 126.53 149.1 126.53 149.1C126.95 151.44 129.03 163.11 132.79 184.11L138.05 227.88L130.35 227.5L113.8 163.82L110.69 226.52C105.1 225.13 101.99 224.35 101.37 224.2C101.37 224.2 99.79 179.11 99.96 158.19C100.2 157.69 100.36 157.11 100.36 156.43" id="bleLfR2sP"></path><path d="M132.05 128.37C133.12 124.72 133.82 120.89 134.99 117.26C135.48 114.58 136.03 111.9 136.58 109.23C136.39 108.77 136.26 108.48 136.22 108.38C135.54 106.78 127.71 105.03 127.71 105.03C126.55 105.31 117.32 107.55 116.17 107.83C116.17 107.83 111.65 108.75 108.47 112.48C107.23 113.92 105.79 116.01 104.32 118.35C104.07 125.61 103.3 132.91 101.93 140.08C102.01 140.05 102.04 140.08 101.99 140.2C101.6 141.29 100.08 150.61 99.51 154.19C99.5 154.65 99.49 155.11 99.49 155.58C102.21 155.55 124 155.38 126.72 155.35C126.72 155.35 130.87 134.33 131.79 130.62C131.74 129.92 131.81 129.17 132.05 128.37" id="eBinJffCI"></path><path d="M110.1 227.74L89.66 228.1L99.52 223.15L109.69 222.38L110.1 227.74Z" id="aJ1vKU4g9"></path><path d="M113.76 88.57C113.9 86.8 112.54 85.87 112.24 87.23C111.93 88.59 110.26 89.81 110.1 90.83C109.94 91.84 111.58 93.52 112.13 92.81C112.69 92.11 113.54 91.25 113.76 88.57" id="cenAQy6Uk"></path><path d="M72.4 81.09C72.4 81.09 72.4 81.09 72.4 81.09C72.4 101.63 72.4 113.03 72.4 115.32C72.4 115.32 72.4 115.32 72.4 115.32C58.04 115.32 50.06 115.32 48.47 115.32C48.47 115.32 48.47 115.32 48.47 115.32C48.47 94.78 48.47 83.37 48.47 81.09C48.47 81.09 48.47 81.09 48.47 81.09C62.83 81.09 70.81 81.09 72.4 81.09Z" id="dfe1B0fXg"></path><path d="M71.14 84.12C71.14 84.12 71.14 84.12 71.14 84.12C71.14 100.86 71.14 110.16 71.14 112.02C71.14 112.02 71.14 112.02 71.14 112.02C58.55 112.02 51.56 112.02 50.16 112.02C50.16 112.02 50.16 112.02 50.16 112.02C50.16 95.28 50.16 85.98 50.16 84.12C50.16 84.12 50.16 84.12 50.16 84.12C62.75 84.12 69.74 84.12 71.14 84.12Z" id="a7XpVZi8FF"></path><path d="M70.22 101.56L66.2 101.56" id="buQL0V4w"></path><path d="M70.22 103.02L66.2 103.02" id="bcCpRADo7"></path><path d="M73.93 98.16C72.41 96.11 71.06 91.82 70.22 94.77C69.37 97.71 73.67 99.53 72.41 100.44C72.41 100.97 72.41 103.59 72.41 108.3L76.21 103.07C75.71 101.17 74.94 99.53 73.93 98.16Z" id="d1wnbeoq0U"></path><path d="M120.96 236.63L138.04 232.77L138.04 227.88L130.35 227.5L120.96 236.63Z" id="c1nuxPXyk6"></path><path d="M110.37 191.76L92.23 188.99L103.34 133.86L114.45 147.96L110.37 191.76Z" id="cdhI9t2PZ"></path><path d="M138.05 198.25C136.33 197.89 127.75 196.11 112.31 192.91L112.31 139.39L128.15 141.99C133.43 171.99 136.73 190.75 138.05 198.25Z" id="e1zptkfWjo"></path><path d="M133.56 107.15C136.53 105.63 151.4 137.32 151.4 137.32C149.79 138.39 141.73 143.79 127.22 153.5L124.7 144.97L138.05 137.32L129.69 123.88L130.98 118.7C130.72 112.02 131.58 108.17 133.56 107.15Z" id="a5ubx6XWX3"></path><path d="M115.62 118.38L127.21 104.73L112.88 108.66L115.62 118.38Z" id="d2nFqF2ah"></path><path d="M107.81 83.17C107.81 83.17 106.12 78.97 107.06 76.38C108 73.79 115.99 70.23 119 70.55C122 70.88 127.4 72.82 129.01 75.41C130.62 78 131.38 80.58 130.62 83.17C129.85 85.76 127.52 96.31 127.52 96.31C127.58 95.59 128.08 89.89 128.14 89.18C128.14 89.18 124.62 85.64 123.08 89.18C121.54 92.72 121.08 94.96 121.08 94.96C121.08 94.96 122 88.03 121.54 84.95C121.08 81.88 112.54 75.89 107.81 83.17" id="cdAH0C01I"></path><path d="M124.52 93.04C123.65 92.6 123.17 92.35 123.07 92.3C122.51 92.02 122.26 91.33 122.52 90.78C122.7 90.4 124.14 87.38 124.32 87C124.59 86.45 125.26 86.24 125.83 86.52C125.98 86.6 127.13 87.19 127.28 87.26C127.84 87.55 128.09 88.24 127.83 88.79C127.65 89.17 126.21 92.18 126.03 92.56C125.77 93.11 125.09 93.33 124.52 93.04" id="b2jf2FPwgQ"></path><path d="M109.24 111.66L112.31 114.4L109.48 116.4L115.23 143.02L116.33 117.55L112.88 108.66L111.93 109.41L109.24 111.66Z" id="k2uj2DCCPg"></path><path d="M126.9 103.83L127.94 111.38L120.85 115.08L123.98 116.74L115.23 143.02L116.26 116.74L126.9 103.83Z" id="i2Zl9bvvKH"></path><path d="M125.69 113.15C125.55 115.24 124.76 116.98 123.36 118.41C121.98 119.82 120.28 120.53 118.32 120.65C118.24 122.09 118.16 123.49 118.07 124.88C117.76 130.19 117.44 135.5 117.13 140.81C117.02 142.69 118.15 144.15 119.8 144.25C121.44 144.35 122.75 143.03 122.86 141.15C123.15 136.4 123.42 131.64 123.71 126.89C123.87 124.39 125.76 122.55 128 122.7C130.26 122.86 131.9 124.87 131.77 127.37C131.64 129.94 131.47 132.52 131.31 135.13C130.93 135.11 130.58 135.09 130.17 135.06C130.18 134.84 130.17 134.6 130.18 134.36C130.32 132.05 130.45 129.74 130.59 127.43C130.7 125.49 129.59 124.07 127.88 123.99C126.22 123.91 124.98 125.2 124.86 127.11C124.59 131.87 124.31 136.62 124.02 141.37C123.88 143.62 122.24 145.39 120.25 145.5C118.04 145.61 116.25 144.05 115.97 141.73C115.92 141.36 115.95 140.97 115.97 140.6C116.35 134.2 116.73 127.8 117.11 121.41C117.13 121.14 117.14 120.88 117.16 120.64C112.7 119.1 110.28 115.94 110.77 112.29C111.11 112.31 111.45 112.33 111.88 112.35C111.87 114.67 112.65 116.64 114.45 118.07C115.54 118.93 116.78 119.38 118.14 119.37C121.43 119.35 123.45 117.37 124.59 113.09C124.93 113.11 125.28 113.13 125.69 113.15" id="a5QAg2yZO"></path><path d="M133.01 137.17C133.01 138.32 132.07 139.26 130.92 139.26C129.76 139.26 128.82 138.33 128.82 137.17C128.82 136.01 129.76 135.07 130.92 135.07C132.07 135.07 133.01 136.01 133.01 137.17" id="a1QOlh3qYX"></path><path d="M115.79 106.77L116.33 105.87L114.1 106.72L110.77 112.29L111.88 112.35L115.79 106.77Z" id="c1X2BLwu9x"></path><path d="M127.21 104.73L128.82 105.3L125.69 113.15L124.6 113.09L127.21 104.73Z" id="e2Wc5wX5ur"></path><path d="M63.01 98.85C61.88 95.66 61.25 93.89 61.12 93.54C59.99 90.35 57.41 88.24 55.38 88.86C53.36 89.47 52.63 92.58 53.76 95.77C53.94 96.28 55.38 100.35 55.56 100.86C57.97 100 60.57 99.6 63.01 98.85" id="bjEk9kCN1"></path><path d="M55.19 99.78C56.63 103.83 57.43 106.08 57.59 106.53C58.44 108.93 60.77 110.41 62.75 109.8C64.74 109.2 65.66 106.74 64.81 104.33C64.57 103.67 62.67 98.32 62.44 97.66C60 98.31 57.49 98.81 55.19 99.78" id="c1FzaV2dy8"></path><path d="M121.24 152.96C125.9 153.29 128.49 153.47 129.01 153.5C129.01 153.5 131.18 162.65 127.94 163.76C124.69 164.86 120.24 161.2 121.24 152.96" id="b1KB6veJlc"></path><path d="M116.9 87.85C116.9 88.7 116.65 89.38 116.33 89.38C116.02 89.38 115.77 88.69 115.77 87.85C115.77 87 116.02 86.31 116.33 86.31C116.65 86.31 116.9 87 116.9 87.85" id="b6ISkZT1qk"></path><path d="M110.61 88.11C110.61 88.96 110.36 89.65 110.05 89.65C109.73 89.65 109.48 88.96 109.48 88.11C109.48 87.27 109.73 86.58 110.05 86.58C110.36 86.58 110.61 87.27 110.61 88.11" id="arnfTmy4W"></path><path d="M114.73 97.44C111.4 96.76 109.55 96.38 109.18 96.31C109.18 96.31 108.58 99.28 111.11 99.55C113.65 99.81 114.73 97.44 114.73 97.44" id="cqQMjL3cF"></path></defs><g><g><use xlink:href="#cpzJhHMKX" opacity="1" fill="#ececed" fill-opacity="1"></use><g><use xlink:href="#cpzJhHMKX" opacity="1" fill-opacity="0" stroke="#000000" stroke-width="1" stroke-opacity="0"></use></g></g><g><use xlink:href="#a1IXHa5Jah" opacity="1" fill="#804e46" fill-opacity="1"></use><g><use xlink:href="#a1IXHa5Jah" opacity="1" fill-opacity="0" stroke="#000000" stroke-width="1" stroke-opacity="0"></use></g></g><g><use xlink:href="#bleLfR2sP" opacity="1" fill="#ececed" fill-opacity="1"></use><g><use xlink:href="#bleLfR2sP" opacity="1" fill-opacity="0" stroke="#000000" stroke-width="1" stroke-opacity="0"></use></g></g><g><use xlink:href="#eBinJffCI" opacity="1" fill="#fcfcfe" fill-opacity="1"></use><g><use xlink:href="#eBinJffCI" opacity="1" fill-opacity="0" stroke="#000000" stroke-width="1" stroke-opacity="0"></use></g></g><g><use xlink:href="#aJ1vKU4g9" opacity="1" fill="#110000" fill-opacity="1"></use><g><use xlink:href="#aJ1vKU4g9" opacity="1" fill-opacity="0" stroke="#000000" stroke-width="1" stroke-opacity="0"></use></g></g><g><use xlink:href="#cenAQy6Uk" opacity="1" fill="#5d3733" fill-opacity="1"></use><g><use xlink:href="#cenAQy6Uk" opacity="1" fill-opacity="0" stroke="#000000" stroke-width="1" stroke-opacity="0"></use></g></g><g><use xlink:href="#dfe1B0fXg" opacity="1" fill="#5f3411" fill-opacity="1"></use><g><use xlink:href="#dfe1B0fXg" opacity="1" fill-opacity="0" stroke="#000000" stroke-width="1" stroke-opacity="0"></use></g></g><g><use xlink:href="#a7XpVZi8FF" opacity="1" fill="#f5f1ed" fill-opacity="1"></use><g><use xlink:href="#a7XpVZi8FF" opacity="1" fill-opacity="0" stroke="#000000" stroke-width="1" stroke-opacity="0"></use></g></g><g><use xlink:href="#buQL0V4w" opacity="1" fill="#000000" fill-opacity="0"></use><g><use xlink:href="#buQL0V4w" opacity="1" fill-opacity="0" stroke="#000000" stroke-width="0.5" stroke-opacity="1"></use></g></g><g><use xlink:href="#bcCpRADo7" opacity="1" fill="#000000" fill-opacity="0"></use><g><use xlink:href="#bcCpRADo7" opacity="1" fill-opacity="0" stroke="#000000" stroke-width="0.5" stroke-opacity="1"></use></g></g><g><use xlink:href="#d1wnbeoq0U" opacity="1" fill="#804e46" fill-opacity="1"></use><g><use xlink:href="#d1wnbeoq0U" opacity="1" fill-opacity="0" stroke="#000000" stroke-width="1" stroke-opacity="0"></use></g></g><g><use xlink:href="#c1nuxPXyk6" opacity="1" fill="#000000" fill-opacity="1"></use><g><use xlink:href="#c1nuxPXyk6" opacity="1" fill-opacity="0" stroke="#000000" stroke-width="1" stroke-opacity="0"></use></g></g><g><use xlink:href="#cdhI9t2PZ" opacity="1" fill="#fcfcfe" fill-opacity="1"></use><g><use xlink:href="#cdhI9t2PZ" opacity="1" fill-opacity="0" stroke="#000000" stroke-width="1" stroke-opacity="0"></use></g></g><g><use xlink:href="#e1zptkfWjo" opacity="1" fill="#fcfcfe" fill-opacity="1"></use><g><use xlink:href="#e1zptkfWjo" opacity="1" fill-opacity="0" stroke="#000000" stroke-width="1" stroke-opacity="0"></use></g></g><g><use xlink:href="#a5ubx6XWX3" opacity="1" fill="#fcfcfe" fill-opacity="1"></use><g><use xlink:href="#a5ubx6XWX3" opacity="1" fill-opacity="0" stroke="#000000" stroke-width="1" stroke-opacity="0"></use></g></g><g><use xlink:href="#d2nFqF2ah" opacity="1" fill="#804e46" fill-opacity="1"></use><g><use xlink:href="#d2nFqF2ah" opacity="1" fill-opacity="0" stroke="#000000" stroke-width="1" stroke-opacity="0"></use></g></g><g><use xlink:href="#cdAH0C01I" opacity="1" fill="#000001" fill-opacity="1"></use><g><use xlink:href="#cdAH0C01I" opacity="1" fill-opacity="0" stroke="#000000" stroke-width="1" stroke-opacity="0"></use></g></g><g><use xlink:href="#b2jf2FPwgQ" opacity="1" fill="#5d3733" fill-opacity="1"></use><g><use xlink:href="#b2jf2FPwgQ" opacity="1" fill-opacity="0" stroke="#000000" stroke-width="1" stroke-opacity="0"></use></g></g><g><use xlink:href="#k2uj2DCCPg" opacity="1" fill="#c4c6ca" fill-opacity="1"></use><g><use xlink:href="#k2uj2DCCPg" opacity="1" fill-opacity="0" stroke="#000000" stroke-width="1" stroke-opacity="0"></use></g></g><g><use xlink:href="#i2Zl9bvvKH" opacity="1" fill="#c4c6ca" fill-opacity="1"></use><g><use xlink:href="#i2Zl9bvvKH" opacity="1" fill-opacity="0" stroke="#000000" stroke-width="1" stroke-opacity="0"></use></g></g><g><use xlink:href="#a5QAg2yZO" opacity="1" fill="#000000" fill-opacity="1"></use><g><use xlink:href="#a5QAg2yZO" opacity="1" fill-opacity="0" stroke="#000000" stroke-width="1" stroke-opacity="0"></use></g></g><g><use xlink:href="#a1QOlh3qYX" opacity="1" fill="#acaeb0" fill-opacity="1"></use><g><use xlink:href="#a1QOlh3qYX" opacity="1" fill-opacity="0" stroke="#000000" stroke-width="1" stroke-opacity="0"></use></g></g><g><use xlink:href="#c1X2BLwu9x" opacity="1" fill="#acaeb0" fill-opacity="1"></use><g><use xlink:href="#c1X2BLwu9x" opacity="1" fill-opacity="0" stroke="#000000" stroke-width="1" stroke-opacity="0"></use></g></g><g><use xlink:href="#e2Wc5wX5ur" opacity="1" fill="#acaeb0" fill-opacity="1"></use><g><use xlink:href="#e2Wc5wX5ur" opacity="1" fill-opacity="0" stroke="#000000" stroke-width="1" stroke-opacity="0"></use></g></g><g><use xlink:href="#bjEk9kCN1" opacity="1" fill="#b21c44" fill-opacity="1"></use><g><use xlink:href="#bjEk9kCN1" opacity="1" fill-opacity="0" stroke="#000000" stroke-width="1" stroke-opacity="0"></use></g></g><g><use xlink:href="#c1FzaV2dy8" opacity="1" fill="#c3bcc0" fill-opacity="1"></use><g><use xlink:href="#c1FzaV2dy8" opacity="1" fill-opacity="0" stroke="#000000" stroke-width="1" stroke-opacity="0"></use></g></g><g><use xlink:href="#b1KB6veJlc" opacity="1" fill="#ececed" fill-opacity="1"></use><g><use xlink:href="#b1KB6veJlc" opacity="1" fill-opacity="0" stroke="#000000" stroke-width="1" stroke-opacity="0"></use></g></g><g><use xlink:href="#b6ISkZT1qk" opacity="1" fill="#000000" fill-opacity="1"></use><g><use xlink:href="#b6ISkZT1qk" opacity="1" fill-opacity="0" stroke="#000000" stroke-width="1" stroke-opacity="0"></use></g></g><g><use xlink:href="#arnfTmy4W" opacity="1" fill="#000000" fill-opacity="1"></use><g><use xlink:href="#arnfTmy4W" opacity="1" fill-opacity="0" stroke="#000000" stroke-width="1" stroke-opacity="0"></use></g></g><g><use xlink:href="#cqQMjL3cF" opacity="1" fill="#fff3de" fill-opacity="1"></use><g><use xlink:href="#cqQMjL3cF" opacity="1" fill-opacity="0" stroke="#000000" stroke-width="1" stroke-opacity="0"></use></g></g></g></svg>