<?xml version="1.0" encoding="utf-8"?>
<!-- Generator: Adobe Illustrator 19.0.0, SVG Export Plug-In . SVG Version: 6.00 Build 0)  -->
<svg version="1.1" id="Layer_1" xmlns="http://www.w3.org/2000/svg" xmlns:xlink="http://www.w3.org/1999/xlink" x="0px" y="0px"
	 viewBox="0 -1600 4535.4 2195.3" style="enable-background:new 0 0 4535.4 595.3;" xml:space="preserve">
<style type="text/css">
	.st0{fill:none;}
	.st1{fill:#221C43;}
	.st2{fill:url(#XMLID_218_);stroke:#38457C;stroke-width:3;stroke-miterlimit:10;}
	.st3{fill:none;stroke:#38457C;stroke-width:3;stroke-miterlimit:10;}
	.st4{fill:#38457C;}
	.st5{fill:none;stroke:#38457C;stroke-width:3;stroke-linecap:round;stroke-miterlimit:10;}
	.st6{fill:url(#SVGID_1_);stroke:#38457C;stroke-width:3;stroke-miterlimit:10;}
	.st7{fill:url(#SVGID_2_);stroke:#38457C;stroke-width:3;stroke-miterlimit:10;}
	.st8{fill:#F0EFEE;}
	.st9{fill:url(#SVGID_3_);stroke:#38457C;stroke-width:3;stroke-miterlimit:10;}
	.st10{fill:none;stroke:#38457C;stroke-width:12;stroke-miterlimit:10;}
	.st11{fill:none;stroke:#38457C;stroke-width:4.1152;stroke-miterlimit:10;}
	.st12{fill:none;stroke:#221C43;stroke-width:1.7126;stroke-miterlimit:10;}
	.st13{fill:url(#XMLID_219_);stroke:#38457C;stroke-width:0.1541;stroke-miterlimit:10;}
	.st14{fill:url(#XMLID_220_);stroke:#38457C;stroke-width:0.1541;stroke-miterlimit:10;}
	.st15{fill:url(#XMLID_221_);stroke:#38457C;stroke-width:0.1541;stroke-miterlimit:10;}
	.st16{fill:url(#XMLID_222_);stroke:#38457C;stroke-width:0.1541;stroke-miterlimit:10;}
	.st17{fill:url(#XMLID_223_);stroke:#38457C;stroke-width:0.1541;stroke-miterlimit:10;}
	.st18{fill:url(#XMLID_224_);stroke:#38457C;stroke-width:0.1541;stroke-miterlimit:10;}
	.st19{fill:url(#XMLID_225_);stroke:#38457C;stroke-width:0.1541;stroke-miterlimit:10;}
	.st20{fill:url(#XMLID_226_);stroke:#38457C;stroke-width:0.1541;stroke-miterlimit:10;}
	.st21{fill:url(#XMLID_227_);stroke:#38457C;stroke-width:0.1541;stroke-miterlimit:10;}
	.st22{fill:url(#XMLID_228_);stroke:#38457C;stroke-width:0.1541;stroke-miterlimit:10;}
	.st23{fill:none;stroke:#38457C;stroke-width:4;stroke-miterlimit:10;}
	.st24{fill:url(#SVGID_4_);stroke:#38457C;stroke-width:4;stroke-miterlimit:10;}
	.st25{fill:url(#XMLID_229_);stroke:#38457C;stroke-width:4;stroke-miterlimit:10;}
	.st26{fill:none;stroke:#38457C;stroke-width:3.0998;stroke-miterlimit:10;}
	.st27{fill:none;stroke:#38457C;stroke-width:2.5889;stroke-miterlimit:10;}
	.st28{fill:none;stroke:#38457C;stroke-width:3.2159;stroke-miterlimit:10;}
	.st29{fill:url(#XMLID_230_);stroke:#38457C;stroke-width:3;stroke-miterlimit:10;}
	.st30{fill:url(#XMLID_231_);stroke:#38457C;stroke-width:3;stroke-miterlimit:10;}
	.st31{fill:url(#SVGID_5_);stroke:#38457C;stroke-width:1.049;stroke-miterlimit:10;}
	.st32{fill:url(#SVGID_6_);stroke:#38457C;stroke-width:1.049;stroke-miterlimit:10;}
	.st33{fill:none;stroke:#38457C;stroke-width:3.0082;stroke-miterlimit:10;}
	.st34{fill:url(#XMLID_232_);stroke:#38457C;stroke-width:3;stroke-miterlimit:10;}
	.st35{fill:url(#XMLID_233_);stroke:#38457C;stroke-width:3;stroke-miterlimit:10;}
	.st36{fill:url(#XMLID_234_);stroke:#38457C;stroke-width:3;stroke-miterlimit:10;}
	.st37{fill:none;stroke:#38457C;stroke-width:4.1751;stroke-linecap:round;stroke-miterlimit:10;}
	.st38{fill:none;stroke:#38457C;stroke-width:3.0082;stroke-linecap:round;stroke-miterlimit:10;}
	.st39{fill:none;stroke:#38457C;stroke-width:4.0109;stroke-linecap:round;stroke-miterlimit:10;}
</style>
<pattern  width="61.5" height="61.5" patternUnits="userSpaceOnUse" id="Nouveau_motif_3" viewBox="0 -61.5 61.5 61.5" style="overflow:visible;">
	<g>
		<polygon class="st0" points="0,-61.5 61.5,-61.5 61.5,0 0,0 		"/>
		<path class="st1" d="M30.1-15c0,8.3-6.7,15-15,15S0-6.7,0-15s6.7-15,15-15S30.1-23.4,30.1-15z"/>
	</g>
</pattern>
<g id="XMLID_1_">
	
		<pattern  id="XMLID_218_" xlink:href="#Nouveau_motif_3" patternTransform="matrix(4.691610e-02 0 0 4.756524e-02 -5640.0308 -6902.7153)">
	</pattern>
	<path id="XMLID_2_" class="st2" d="M3814.2,313.7v177.4h352.5V313.7H3814.2z M3889.3,491.1h-45.1V359.2c0-14.4,10.1-26.2,22.6-26.2
		s22.6,11.7,22.6,26.2V491.1z M3971.8,491.1h-45.1V359.2c0-14.4,10.1-26.2,22.6-26.2s22.6,11.7,22.6,26.2V491.1z M4054.3,491.1
		h-45.1V359.2c0-14.4,10.1-26.2,22.6-26.2c12.5,0,22.6,11.7,22.6,26.2V491.1z M4136.8,491.1h-45.1V359.2c0-14.4,10.1-26.2,22.6-26.2
		s22.6,11.7,22.6,26.2V491.1z"/>
	<path class="st3" d="M4195.5,313.6h-410.1c-0.3,0-0.5-0.2-0.5-0.5v-23.5c0-0.3,0.2-0.5,0.5-0.5h410.1c0.3,0,0.5,0.2,0.5,0.5v23.5
		C4196,313.4,4195.8,313.6,4195.5,313.6z"/>
	<path class="st3" d="M4195.5,505.9h-410.1c-0.3,0-0.5-0.2-0.5-0.5v-13.8c0-0.3,0.2-0.5,0.5-0.5h410.1c0.3,0,0.5,0.2,0.5,0.5v13.8
		C4196,505.6,4195.8,505.9,4195.5,505.9z"/>
	<path class="st3" d="M4229.6,520.6h-478.3c-0.3,0-0.5-0.2-0.5-0.5v-13.8c0-0.3,0.2-0.5,0.5-0.5h478.3c0.3,0,0.5,0.2,0.5,0.5v13.8
		C4230.1,520.4,4229.9,520.6,4229.6,520.6z"/>
	<path class="st3" d="M4248,548h-515.1c-0.3,0-0.5-0.2-0.5-0.5v-26.4c0-0.3,0.2-0.5,0.5-0.5H4248c0.3,0,0.5,0.2,0.5,0.5v26.4
		C4248.5,547.8,4248.3,548,4248,548z"/>
	<path id="XMLID_8_" class="st4" d="M4125.4,175.8c-0.2-0.2-0.4-0.3-0.6-0.5c-0.2-0.2-0.4-0.3-0.6-0.5c0.2-0.2,0.3-0.4,0.5-0.5
		c0.2-0.2,0.4-0.4,0.5-0.6c0.2,0.2,0.4,0.3,0.6,0.5c0.2,0.2,0.4,0.3,0.6,0.5"/>
	<path id="XMLID_9_" class="st3" d="M3990.3,172.5l-247.4,115.7c-0.5,0.2-0.3,1,0.2,0.8h494.9c0.5,0.1,0.7-0.6,0.2-0.8l-247.4-115.7
		C3990.6,172.4,3990.4,172.4,3990.3,172.5z"/>
	<polygon id="XMLID_10_" class="st4" points="4155.6,275.9 4154.6,275.4 4153.6,274.9 4130.9,263.9 4130.2,263.6 4129.5,263.3 
		4117,257.2 4115.9,256.7 4114.9,256.2 4028.5,214.6 4028.5,214.5 4027.8,214.2 4027.1,213.9 4027.1,213.9 3990.5,196.2 
		3823.5,276.8 4157.5,276.8 	"/>
</g>
<line class="st5" x1="2834.4" y1="181.9" x2="2770.2" y2="181.9"/>
<line class="st5" x1="2834.4" y1="217.4" x2="2770.2" y2="217.4"/>
<line class="st5" x1="2834.4" y1="252.2" x2="2770.2" y2="252.2"/>
<line class="st5" x1="2834.4" y1="287.4" x2="2770.2" y2="287.4"/>
<pattern  id="SVGID_1_" xlink:href="#Nouveau_motif_3" patternTransform="matrix(4.691610e-02 0 0 4.756524e-02 -5639.8301 -6905.2495)">
</pattern>
<polygon class="st6" points="2808.4,342.7 2808.4,547.7 2700.7,547.7 2700.7,374.9 "/>
<polygon class="st4" points="2809.6,322.5 2809.6,345.9 2807.2,345.9 2807.2,325.4 2807.2,325.4 2701.9,355.5 2701.9,374.9 
	2699.5,374.9 2699.5,353.7 2700.4,353.4 2807.2,322.9 2808.5,322.5 "/>
<path class="st4" d="M2808.5,322.5l-1.3,0.4V343l0.1,0.1l1.2,2.8l1.3,3V325h248.6v18.9h0.4l2.1,5v-26.4H2808.5z M3058.3,403.3v6.6
	l2.5,6v-6.6L3058.3,403.3z"/>
<polygon class="st4" points="3060.8,422.6 3060.8,549 2807.2,549 2807.2,343 2807.2,343.1 2808.4,345.9 2809.7,349 2809.7,546.4 
	3058.3,546.4 3058.3,422.6 "/>
<path class="st4" d="M3045.5,412.6l1.2,2.9v-2.9H3045.5z M3044.4,422.6v89.9h-123.5v-89.9h-2.3v92.2h128.2v-92.2H3044.4z"/>
<path class="st4" d="M2837.6,443v103.5h2.3V445.3h53.5v101.2h2.3V443H2837.6z"/>
<path class="st4" d="M2843.5,450.4v96h2.4v-93.7h41.7v93.7h2.4v-96H2843.5z"/>
<path class="st4" d="M2933,496.6c-0.4,0-0.7-0.2-1-0.5c-0.4-0.5-0.4-1.3,0.2-1.8l65-54.4c0.5-0.5,1.3-0.4,1.8,0.2
	c0.4,0.5,0.4,1.3-0.2,1.8l-65,54.4C2933.6,496.5,2933.3,496.6,2933,496.6z"/>
<path class="st4" d="M2989.7,478.4c-0.4,0-0.7-0.2-1-0.5c-0.4-0.5-0.4-1.3,0.2-1.8l41.8-35c0.5-0.5,1.3-0.4,1.8,0.2
	c0.4,0.5,0.4,1.3-0.2,1.8l-41.8,35C2990.3,478.3,2990,478.4,2989.7,478.4z"/>
<line class="st3" x1="2700.7" y1="374.9" x2="2808.4" y2="342.7"/>
<path class="st4" d="M3060.8,342.4l-0.4-1h-253.2v1.5l0.1,0.1l1.2,2.8l1.3,3l30.7,73.6h253.9L3060.8,342.4z M2842.1,420l-31.7-76.1
	h108.9l28.6,68.6l1,2.3l2.1,5.1H2842.1z M2953.7,420l-2.1-5.1l-1-2.3l-28.6-68.6h11.2l28.6,68.6l1,2.3l2.1,5.1H2953.7z M2967.6,420
	l-2.1-5.1l-1-2.3l-28.6-68.6h11.2l28.6,68.6l1,2.3l2.1,5.1H2967.6z M2981.6,420l-2.1-5.1l-1-2.3l-28.6-68.6h108.9l2.1,5l29.6,71.1
	H2981.6z"/>
<polygon class="st3" points="2841.2,421.3 2808.4,421.3 2808.4,342.7 "/>
<polygon class="st4" points="2925.8,420 2923.1,420 2920.9,414.9 2919.9,412.6 2891.3,343.9 2894.1,343.9 2922.7,412.6 
	2923.7,414.9 "/>
<polygon class="st4" points="2939.7,420 2937,420 2934.9,414.9 2933.9,412.6 2905.3,343.9 2908,343.9 2936.6,412.6 2937.6,414.9 "/>
<polygon class="st4" points="2911.8,420 2909.1,420 2877.4,343.9 2880.1,343.9 "/>
<polygon class="st4" points="2897.9,420 2895.2,420 2863.4,343.9 2866.2,343.9 "/>
<polygon class="st4" points="2883.9,420 2881.2,420 2849.5,343.9 2852.2,343.9 "/>
<polygon class="st4" points="2870,420 2867.3,420 2835.5,343.9 2838.2,343.9 "/>
<polygon class="st4" points="2856,420 2853.3,420 2821.6,343.9 2824.3,343.9 "/>
<polygon class="st4" points="3079.3,420 3076.5,420 3044.8,343.9 3047.5,343.9 "/>
<polygon class="st4" points="3051.4,420 3048.6,420 3046.7,415.5 3045.5,412.6 3016.9,343.9 3019.6,343.9 "/>
<polygon class="st4" points="3065.3,420 3062.6,420 3060.8,415.9 3058.3,409.8 3030.8,343.9 3033.6,343.9 3058.3,403.3 
	3060.8,409.3 "/>
<polygon class="st4" points="3037.4,420 3034.7,420 3032.5,414.9 3031.6,412.6 3002.9,343.9 3005.7,343.9 3034.3,412.6 
	3035.3,414.9 "/>
<polygon class="st4" points="3023.5,420 3020.7,420 3018.6,414.9 3017.6,412.6 2989,343.9 2991.7,343.9 3020.4,412.6 3021.3,414.9 
	"/>
<polygon class="st4" points="3009.5,420 3006.8,420 3004.6,414.9 3003.7,412.6 2975,343.9 2977.8,343.9 3006.4,412.6 3007.4,414.9 
	"/>
<polygon class="st4" points="2995.6,420 2992.8,420 2990.7,414.9 2989.7,412.6 2961.1,343.9 2963.8,343.9 2992.4,412.6 
	2993.4,414.9 "/>
<rect x="2840.7" y="422.6" class="st4" width="252.3" height="12.2"/>
<line class="st3" x1="2841.2" y1="421.3" x2="2808.4" y2="421.3"/>
<pattern  id="SVGID_2_" xlink:href="#Nouveau_motif_3" patternTransform="matrix(4.691610e-02 0 0 4.756524e-02 -5639.8301 -6905.2495)">
</pattern>
<polygon class="st7" points="2701.4,131.4 2748.3,131.4 2748.3,340.8 2701.4,354.3 "/>
<polygon class="st3" points="2748.3,131.4 2856.4,131.4 2856.4,323.7 2808.4,323.7 2748.3,340.8 "/>
<path class="st4" d="M2471.8,40v507.8H2702V40H2471.8z M2699.4,545.2h-225.1V42.5h225.1V545.2z"/>
<rect x="2416.2" y="56" class="st4" width="58.4" height="491.7"/>
<line class="st3" x1="2473.1" y1="181.9" x2="2700.7" y2="181.9"/>
<line class="st3" x1="2473.1" y1="296.2" x2="2700.7" y2="296.2"/>
<line class="st3" x1="2473.1" y1="409.3" x2="2700.7" y2="409.3"/>
<path class="st4" d="M2586.9,442.9c-19.9,0-36.2,16.2-36.2,36.2v68.7h7.6v-68.2c0-0.2,0-0.3,0-0.5h57.2v68.7h7.6v-68.7
	C2623.1,459.1,2606.8,442.9,2586.9,442.9z M2620.5,545.2h-2.5v-65.7c0-0.2,0-0.3,0-0.5c0-0.4,0-0.9,0-1.3v-0.1c0-0.2,0-0.4,0-0.6
	l0-0.6h-62.1l0,0.4l-0.1,0.8v0.1c0,0.4,0,0.9,0,1.3c0,0.2,0,0.3,0,0.5v65.7h-2.5v-66.2c0-18.6,15.1-33.7,33.7-33.7
	c18.6,0,33.6,15.1,33.6,33.7V545.2z M2555.9,476.5l0,0.4C2555.9,476.8,2555.9,476.6,2555.9,476.5L2555.9,476.5z"/>
<path class="st8" d="M2620.5,479.1v66.2h-2.5v-65.7c0-0.2,0-0.3,0-0.5h0l-0.1-1.3v-0.1l-0.1-1.2h0c-1.5-15.9-14.9-28.1-31-28.1
	c-16.1,0-29.5,12.3-31,28.1h0l-0.1,1.2v0.1l-0.1,1.3h0c0,0.2,0,0.3,0,0.5v65.7h-2.5v-66.2c0-18.6,15.1-33.7,33.7-33.7
	C2605.5,445.4,2620.5,460.5,2620.5,479.1z"/>
<path class="st4" d="M2618,479c0-0.4,0-0.9,0-1.3v-0.1c0-0.2,0-0.4,0-0.6l0-0.6h-62.1l0,0.4l-0.1,0.8v0.1c0,0.4,0,0.9,0,1.3
	c0,0.2,0,0.3,0,0.5v68.2h62.3v-68.2C2618.1,479.4,2618.1,479.2,2618,479z M2615.5,545.2h-57.3v-65.7c0-0.2,0-0.3,0-0.5h57.2V545.2z"
	/>
<path class="st8" d="M2615.5,479v2.9h-57.3v-2.5c0-0.2,0-0.3,0-0.5H2615.5z"/>
<path class="st4" d="M2618,477.7L2618,477.7c0-0.3,0-0.5,0-0.7c0-0.2,0-0.4-0.1-0.6c-1.5-15.9-14.9-28.1-31-28.1
	c-16.1,0-29.5,12.3-31,28.1c0,0.1,0,0.3,0,0.4l-0.1,0.8v0.1l-0.1,1.3h62.4L2618,477.7z M2558.4,476.5c1.5-14.1,13.1-25,27.2-25.6
	c0.4,0,0.8,0,1.3,0c0.4,0,0.8,0,1.3,0c14.1,0.6,25.7,11.5,27.2,25.6H2558.4z"/>
<rect x="2585.6" y="449.6" class="st4" width="2.5" height="27.9"/>
<polygon class="st1" points="2557,479 2557,479 2557,476.5 "/>
<polygon class="st1" points="2616.8,479 2616.7,479 2616.7,476.5 "/>
<g>
	<g>
		<path class="st4" d="M2488.2,89.5V160h48.1v-2.6h-2.5v0h-43V92h43v62.6h2.5V89.5H2488.2z"/>
		<path class="st4" d="M2488.2,152.1v7.8h56.9v-7.8H2488.2z M2542.6,157.4h-51.8v-2.8h51.8V157.4z"/>
		<rect id="XMLID_13_" x="2489.5" y="135" class="st4" width="45.6" height="2.5"/>
		<rect id="XMLID_14_" x="2511" y="90.8" class="st4" width="2.5" height="45.5"/>
	</g>
	<g>
		<path class="st4" d="M2556.4,89.5V160h48.1v-2.6h-2.5v0h-43V92h43v62.6h2.5V89.5H2556.4z"/>
		<path class="st4" d="M2556.5,152.1v7.8h56.9v-7.8H2556.5z M2610.9,157.4H2559v-2.8h51.8V157.4z"/>
		<rect id="XMLID_15_" x="2557.7" y="135" class="st4" width="45.6" height="2.5"/>
		<rect id="XMLID_16_" x="2579.3" y="90.8" class="st4" width="2.5" height="45.5"/>
	</g>
	<g>
		<path class="st4" d="M2624.8,89.5v70.5h48.1v-2.5h-45.6V92h43v62.6h2.5V89.5H2624.8z"/>
		<path class="st4" d="M2624.8,152.1v7.8h56.9v-7.8H2624.8z M2679.2,157.4h-51.8v-2.8h51.8V157.4z"/>
		<rect id="XMLID_17_" x="2626" y="135" class="st4" width="45.6" height="2.5"/>
		<rect id="XMLID_18_" x="2647.6" y="90.8" class="st4" width="2.5" height="45.5"/>
	</g>
</g>
<g id="XMLID_11_">
	<g id="XMLID_12_">
		<path id="XMLID_19_" class="st4" d="M2488.2,203.8v70.5h48.1v-2.6h-2.5v0h-43v-65.4h43V269h2.5v-65.1H2488.2z"/>
		<path id="XMLID_21_" class="st4" d="M2488.2,266.4v7.8h56.9v-7.8H2488.2z M2542.6,271.7h-51.8V269h51.8V271.7z"/>
		<rect id="XMLID_25_" x="2489.5" y="249.4" class="st4" width="45.6" height="2.5"/>
		<rect id="XMLID_26_" x="2511" y="205.1" class="st4" width="2.5" height="45.5"/>
	</g>
	<g id="XMLID_27_">
		<path id="XMLID_28_" class="st4" d="M2556.4,203.8v70.5h48.1v-2.6h-2.5v0h-43v-65.4h43V269h2.5v-65.1H2556.4z"/>
		<path id="XMLID_30_" class="st4" d="M2556.5,266.4v7.8h56.9v-7.8H2556.5z M2610.9,271.7H2559V269h51.8V271.7z"/>
		<rect id="XMLID_34_" x="2557.7" y="249.4" class="st4" width="45.6" height="2.5"/>
		<rect id="XMLID_35_" x="2579.3" y="205.1" class="st4" width="2.5" height="45.5"/>
	</g>
	<g id="XMLID_36_">
		<path id="XMLID_37_" class="st4" d="M2624.8,203.8v70.5h48.1v-2.5h-45.6v-65.4h43V269h2.5v-65.2H2624.8z"/>
		<path id="XMLID_39_" class="st4" d="M2624.8,266.4v7.8h56.9v-7.8H2624.8z M2679.2,271.7h-51.8V269h51.8V271.7z"/>
		<rect id="XMLID_43_" x="2626" y="249.4" class="st4" width="45.6" height="2.5"/>
		<rect id="XMLID_44_" x="2647.6" y="205.1" class="st4" width="2.5" height="45.5"/>
	</g>
</g>
<g id="XMLID_45_">
	<g id="XMLID_46_">
		<path id="XMLID_47_" class="st4" d="M2488.2,317.6V388h48.1v-2.6h-2.5v0h-43v-65.4h43v62.6h2.5v-65.1H2488.2z"/>
		<path id="XMLID_49_" class="st4" d="M2488.2,380.2v7.8h56.9v-7.8H2488.2z M2542.6,385.5h-51.8v-2.8h51.8V385.5z"/>
		<rect id="XMLID_53_" x="2489.5" y="363.1" class="st4" width="45.6" height="2.5"/>
		<rect id="XMLID_54_" x="2511" y="318.8" class="st4" width="2.5" height="45.5"/>
	</g>
	<g id="XMLID_55_">
		<path id="XMLID_56_" class="st4" d="M2556.4,317.6V388h48.1v-2.6h-2.5v0h-43v-65.4h43v62.6h2.5v-65.1H2556.4z"/>
		<path id="XMLID_58_" class="st4" d="M2556.5,380.2v7.8h56.9v-7.8H2556.5z M2610.9,385.5H2559v-2.8h51.8V385.5z"/>
		<rect id="XMLID_62_" x="2557.7" y="363.1" class="st4" width="45.6" height="2.5"/>
		<rect id="XMLID_63_" x="2579.3" y="318.8" class="st4" width="2.5" height="45.5"/>
	</g>
	<g id="XMLID_64_">
		<path id="XMLID_65_" class="st4" d="M2624.8,317.5V388h48.1v-2.5h-45.6v-65.4h43v62.6h2.5v-65.2H2624.8z"/>
		<path id="XMLID_67_" class="st4" d="M2624.8,380.2v7.8h56.9v-7.8H2624.8z M2679.2,385.5h-51.8v-2.8h51.8V385.5z"/>
		<rect id="XMLID_71_" x="2626" y="363.1" class="st4" width="45.6" height="2.5"/>
		<rect id="XMLID_72_" x="2647.6" y="318.8" class="st4" width="2.5" height="45.5"/>
	</g>
</g>
<rect x="2557" y="482" class="st4" width="59.7" height="2.5"/>
<rect x="2916.6" y="227" class="st3" width="68.2" height="63.8"/>
<pattern  id="SVGID_3_" xlink:href="#Nouveau_motif_3" patternTransform="matrix(4.691610e-02 0 0 4.756524e-02 -5639.8301 -6905.2495)">
</pattern>
<rect x="2916.6" y="227" class="st9" width="18.7" height="63.8"/>
<polygon class="st3" points="2950.7,204.9 2910.3,227 2991.2,227 "/>
<line class="st3" x1="2950.7" y1="290.8" x2="2950.7" y2="322.5"/>
<line class="st3" x1="2984.7" y1="290.8" x2="2991.2" y2="324.8"/>
<line class="st3" x1="2916.6" y1="290.7" x2="2910.2" y2="324.7"/>
<path class="st3" d="M2913.6,291.1c0,7.1,16.6,12.8,37.2,12.8c20.5,0,37.2-5.7,37.2-12.8H2913.6z"/>
<polyline class="st3" points="2840.7,422.6 2840.7,434.7 3093,434.7 3093,422.6 "/>
<line class="st10" x1="4446.3" y1="554" x2="90.7" y2="554"/>
<g id="XMLID_73_">
	<rect x="1998.3" y="109.4" class="st3" width="182.3" height="437.7"/>
	<rect x="2180.5" y="328.2" class="st11" width="237.8" height="218.8"/>
	<rect x="1930.6" y="132.7" class="st4" width="67.6" height="416.8"/>
	<path class="st3" d="M2417.3,328.2H2181c-0.3,0-0.5-0.2-0.5-0.5v-23.4c0-0.3,0.2-0.5,0.5-0.5h236.3c0.3,0,0.5,0.2,0.5,0.5v23.4
		C2417.8,328,2417.6,328.2,2417.3,328.2z"/>
	<path class="st3" d="M2194.4,133.5H1933c-0.3,0-0.5-0.2-0.5-0.5v-23.4c0-0.3,0.2-0.5,0.5-0.5h261.4c0.3,0,0.5,0.2,0.5,0.5V133
		C2194.9,133.3,2194.6,133.5,2194.4,133.5z"/>
	<path id="XMLID_74_" class="st4" d="M2262.3,425.8v122.3h74.2V425.8H2262.3z M2333,544.6h-67.2V429.3h67.2V544.6z"/>
	<polygon id="XMLID_78_" class="st8" points="2333,429.3 2333,544.6 2327.9,544.6 2327.9,434.7 2270.9,434.7 2270.9,544.6 
		2265.8,544.6 2265.8,429.3 	"/>
	<path id="XMLID_79_" class="st4" d="M2270.9,434.7v113.2h57V434.7H2270.9z M2325,544.9h-51.1V437.6h51.1V544.9z"/>
	<g id="XMLID_83_">
		<path id="XMLID_84_" class="st4" d="M2043.8,163.9v96.9h66.1v-3.5h-62.6v-89.9h59.2v86.2h3.5v-89.6H2043.8z"/>
		<path id="XMLID_86_" class="st4" d="M2043.8,250.1v10.7h78.3v-10.7H2043.8z M2118.6,257.3h-71.3v-3.8h71.3V257.3z"/>
		<line class="st11" x1="2045.5" y1="228.4" x2="2108.2" y2="228.4"/>
		<line class="st11" x1="2076.9" y1="165.9" x2="2076.9" y2="228.6"/>
	</g>
	<g id="XMLID_90_">
		<path id="XMLID_91_" class="st4" d="M2043.8,286.6v96.9h66.1V380h-62.6v-89.9h59.2v86.2h3.5v-89.6H2043.8z"/>
		<path id="XMLID_93_" class="st4" d="M2043.8,372.8v10.7h78.3v-10.7H2043.8z M2118.6,380h-71.3v-3.8h71.3V380z"/>
		<line class="st11" x1="2045.5" y1="351.1" x2="2108.2" y2="351.1"/>
		<line class="st11" x1="2076.9" y1="288.6" x2="2076.9" y2="351.3"/>
	</g>
	<g id="XMLID_97_">
		<path id="XMLID_98_" class="st4" d="M2043.8,409.3v96.9h66.1v-3.5h-62.6v-89.9h59.2V499h3.5v-89.6H2043.8z"/>
		<path id="XMLID_100_" class="st4" d="M2043.8,495.5v10.7h78.3v-10.7H2043.8z M2118.6,502.7h-71.3V499h71.3V502.7z"/>
		<line class="st11" x1="2045.5" y1="473.8" x2="2108.2" y2="473.8"/>
		<line class="st11" x1="2076.9" y1="411.4" x2="2076.9" y2="474"/>
	</g>
	<g id="XMLID_104_">
		<path id="XMLID_105_" class="st4" d="M2286.7,363.2c7.1,0,11.1,2.6,11.1,9.1c0,5.4-3,7.9-6.7,8.6v0.2c1.7,0.8,2.7,1.9,4.2,4.6
			l4.9,8.6h-8.3l-5.3-10.1c-0.6-1.1-1.5-1.5-2.9-1.5h-0.5v11.6h-6.9v-31.1H2286.7z M2283.2,377.4h2.6c3.7,0,4.9-1.6,4.9-4.4
			c0-2.8-1.7-4.1-4.8-4.1h-2.7V377.4z"/>
		<path id="XMLID_108_" class="st4" d="M2314.7,363.2c7.1,0,11.1,2.6,11.1,9.1c0,5.4-3,7.9-6.7,8.6v0.2c1.7,0.8,2.7,1.9,4.2,4.6
			l4.9,8.6h-8.3l-5.3-10.1c-0.6-1.1-1.5-1.5-2.9-1.5h-0.5v11.6h-6.9v-31.1H2314.7z M2311.2,377.4h2.6c3.7,0,4.9-1.6,4.9-4.4
			c0-2.8-1.7-4.1-4.8-4.1h-2.7V377.4z"/>
	</g>
</g>
<g id="XMLID_111_">
	<path id="XMLID_112_" class="st4" d="M197,395.6v0.1c0,0,0,0,0,0.1v0.1c0,0.1-0.1,0.3-0.1,0.4c0,0,0,0,0,0v0c0,0.1,0,0.1-0.1,0.1
		c0,0.1-0.1,0.1-0.1,0.2c0,0,0,0,0,0c0,0,0,0,0,0c0,0.1-0.1,0.1-0.1,0.2c-0.1,0.1-0.1,0.1-0.2,0.2c0,0-0.1,0.1-0.1,0.1
		c0,0,0,0-0.1,0c-0.1,0-0.1,0.1-0.2,0.1c0,0-0.1,0-0.1,0.1c0,0,0,0,0,0c0,0-0.1,0-0.1,0c-0.2,0-0.3,0.1-0.5,0.1c-0.1,0-0.2,0-0.3,0
		c0,0-0.1,0-0.1,0c-0.1,0-0.1,0-0.2-0.1c0,0,0,0,0,0c-0.1,0-0.1,0-0.1-0.1c-0.1,0-0.1-0.1-0.2-0.1c0,0,0,0,0,0
		c-0.1,0-0.1-0.1-0.2-0.1c0,0,0,0-0.1-0.1c0,0-0.1-0.1-0.1-0.1c0,0,0,0,0,0c0,0-0.1-0.1-0.1-0.1c0,0,0,0,0,0c0,0,0,0,0,0
		c0,0,0-0.1-0.1-0.1c0,0,0,0,0,0l-0.2-0.3l-0.4-0.6L173.1,366l-2.4-3.5c-0.2-0.4-0.3-0.8-0.3-1.2c0-0.3,0.2-0.7,0.4-0.9
		c0.1-0.1,0.1-0.1,0.2-0.1c0.1-0.1,0.1-0.1,0.2-0.1c0.8-0.5,1.8-0.3,2.4,0.5l0.8,1.2l20.6,30.4l1,1.4l0.6,1c0,0,0,0.1,0.1,0.1
		c0,0,0,0,0,0v0l0,0v0c0,0,0,0,0,0c0,0.1,0.1,0.1,0.1,0.2c0,0.1,0,0.1,0.1,0.1c0,0,0,0.1,0,0.1c0,0,0,0,0,0c0,0,0,0,0,0
		c0,0,0,0.1,0,0.1c0,0,0,0,0,0v0c0,0.1,0,0.1,0,0.2c0,0,0,0,0,0C197,395.5,197,395.5,197,395.6z"/>
	<path id="XMLID_113_" class="st4" d="M197,395.7c0,0,0,0.1,0,0.1v0.1c0,0.1-0.1,0.3-0.1,0.4c0,0,0,0,0,0c0,0,0,0.1,0,0.1
		c0,0,0,0,0,0c0,0.1-0.1,0.1-0.1,0.2c0,0,0,0,0,0c0,0,0,0.1,0,0.1c0,0-0.1,0.1-0.1,0.1l-0.2,0.3l-1.1,1.4l-1.5,2l-34.3,45.6
		l-0.7,0.9c-0.3,0.4-0.8,0.7-1.4,0.7c-0.4,0-0.7-0.1-1-0.3c-0.2-0.1-0.3-0.3-0.4-0.4c0-0.1-0.1-0.1-0.1-0.2
		c-0.1-0.3-0.2-0.6-0.2-0.9c0,0,0,0,0,0l0-0.1c0,0,0,0,0,0c0.1-0.2,0.1-0.5,0.3-0.7l4.3-5.7l32.8-43.6l0.6-0.8l0.1-0.1c0,0,0,0,0,0
		c0,0,0,0,0,0v0c0,0,0,0,0,0c0-0.1,0.1-0.1,0.1-0.2c0,0,0,0,0,0c0,0,0,0,0,0c0,0,0-0.1,0.1-0.1c0,0,0.1-0.1,0.1-0.1c0,0,0,0,0.1,0
		c0,0,0,0,0,0c0,0,0.1-0.1,0.1-0.1c0,0,0,0,0,0c0,0,0,0,0,0c0,0,0,0,0.1,0c0,0,0,0,0,0c0,0,0.1,0,0.1,0c0,0,0,0,0,0c0,0,0,0,0.1,0
		c0.1,0,0.1,0,0.2-0.1c0,0,0,0,0,0c0,0,0.1,0,0.1,0c0,0,0,0,0.1,0c0,0,0.1,0,0.1,0c0,0,0,0,0,0c0,0,0,0,0,0c0.1,0,0.1,0,0.2,0
		c0.1,0,0.1,0,0.1,0c0,0,0,0,0.1,0c0,0,0,0,0,0c0,0,0.1,0,0.1,0c0,0,0.1,0,0.1,0c0,0,0.1,0,0.1,0c0,0,0,0,0.1,0c0,0,0.1,0,0.1,0.1
		c0,0,0.1,0,0.1,0.1c0,0,0.1,0,0.1,0.1c0,0,0.1,0,0.1,0.1c0,0,0,0,0,0c0,0,0,0,0,0c0,0,0,0,0,0c0,0,0.1,0.1,0.1,0.1
		c0,0,0,0.1,0.1,0.1c0,0,0,0,0,0c0,0,0,0,0,0c0,0.1,0.1,0.1,0.1,0.2c0,0,0,0.1,0,0.1c0,0,0,0.1,0,0.1c0,0,0,0,0,0c0,0,0,0,0,0
		c0,0,0,0,0,0.1c0,0,0,0.1,0,0.1c0,0.1,0,0.1,0,0.2c0,0,0,0.1,0,0.1L197,395.7C197,395.6,197,395.6,197,395.7z"/>
	<path id="XMLID_114_" class="st12" d="M447,437.9"/>
	<path id="XMLID_115_" class="st4" d="M522.8,445.7C522.8,445.7,522.8,445.7,522.8,445.7c0-0.1,0-0.1,0-0.1c0,0,0,0,0,0l-14.7-84.3
		c0-0.1,0-0.1,0-0.2l-0.1-0.5l-68.1-64.7c-0.1-0.1-0.1-0.1-0.2-0.2l-0.2-0.2l-99.7-32.1l-0.5-0.2l-99.6,32.1l0,0c0,0,0,0,0,0l-0.1,0
		c0,0-0.1,0-0.1,0l-0.4,0.1l-0.2,0.2c0,0-0.1,0.1-0.1,0.1l-0.5,0.4l-67.2,63.9c-0.1,0-0.1,0.1-0.2,0.1l-0.3,0.3l-0.1,0.7l-14.7,84.3
		c0,0,0,0,0,0l0,0.1c0,0,0,0,0,0l-0.1,0.5l0.2,0.4c0,0.1,0.1,0.1,0.1,0.2l42.9,77.4c0,0,0,0,0,0c0,0,0,0.1,0.1,0.1
		c0,0,0,0.1,0.1,0.1c0,0,0,0,0,0l0.2,0.4l0.5,0.2c0,0,0,0,0,0c0,0,0,0,0.1,0c0.1,0,0.2,0.1,0.2,0.1c0,0,0,0,0,0s0,0,0,0
		c0,0,0,0,0.1,0l86.6,28.3c0.1,0,0.2,0.1,0.2,0.1l0.2,0.1h104l0.2-0.1c0.1,0,0.2-0.1,0.2-0.1l86.7-28.3c0.1,0,0.2,0,0.2-0.1
		c0,0,0,0,0.1,0c0,0,0,0,0,0l0.5-0.1l0.3-0.5c0,0,0,0,0-0.1c0,0,0.1-0.1,0.1-0.1c0,0,0,0,0,0l42.9-77.4c0-0.1,0.1-0.1,0.1-0.2
		l0.2-0.4L522.8,445.7z M480.1,516.4L480.1,516.4l-2.2,4l-1,1.7l-0.5,0.2l-1.1,0.4L394.3,549l-2.4,0.8l-1,0.3h-103l-1-0.3l-2.5-0.8
		l-81.1-26.4l-1.1-0.4l-0.5-0.2l-1-1.7l-2.2-4l-39-70.3l-0.2-0.4l1.1-6.4l12.8-73.2l0.6-3.6l0.6-0.6l60.4-57.4l4.8-4.6l1.1-1.1
		l0.1-0.1l0.3-0.1l1.3-0.4l11.4-3.7l0,0l83.4-26.9l1.9-0.6l1.5,0.5l83.8,27l0,0l11.1,3.6l1.6,0.5l0.4,0.1l0.2,0.2l0.9,0.9l4.9,4.7
		l0,0l60.4,57.4l0.7,0.6l0.6,3.6l12.8,73.3v0l1.1,6.3l-0.2,0.4L480.1,516.4z"/>
	
		<pattern  id="XMLID_219_" xlink:href="#Nouveau_motif_3" patternTransform="matrix(5.137707e-02 0 0 5.137707e-02 -5604.4966 -6983.8677)">
	</pattern>
	<polygon id="XMLID_119_" class="st13" points="337.4,267.5 337.4,288.5 254,294.3 	"/>
	
		<pattern  id="XMLID_220_" xlink:href="#Nouveau_motif_3" patternTransform="matrix(5.137707e-02 0 0 5.137707e-02 -5604.4966 -6983.8677)">
	</pattern>
	<polygon id="XMLID_120_" class="st14" points="424.7,294.4 340.9,288.5 340.9,267.3 	"/>
	
		<pattern  id="XMLID_221_" xlink:href="#Nouveau_motif_3" patternTransform="matrix(5.137707e-02 0 0 5.137707e-02 -5604.4966 -6983.8677)">
	</pattern>
	<polygon id="XMLID_121_" class="st15" points="504.2,361.7 483.2,392.1 443.8,304.3 	"/>
	
		<pattern  id="XMLID_222_" xlink:href="#Nouveau_motif_3" patternTransform="matrix(5.137707e-02 0 0 5.137707e-02 -5604.4966 -6983.8677)">
	</pattern>
	<polygon id="XMLID_122_" class="st16" points="234.8,304.3 195.1,392.1 174.5,361.7 	"/>
	
		<pattern  id="XMLID_223_" xlink:href="#Nouveau_motif_3" patternTransform="matrix(5.137707e-02 0 0 5.137707e-02 -5604.4966 -6983.8677)">
	</pattern>
	<polygon id="XMLID_123_" class="st17" points="198.5,516.3 159.6,446.1 193.9,400.5 	"/>
	
		<pattern  id="XMLID_224_" xlink:href="#Nouveau_motif_3" patternTransform="matrix(5.137707e-02 0 0 5.137707e-02 -5604.4966 -6983.8677)">
	</pattern>
	<polygon id="XMLID_124_" class="st18" points="336.2,471.4 287.8,548.3 248.9,464.2 	"/>
	
		<pattern  id="XMLID_225_" xlink:href="#Nouveau_motif_3" patternTransform="matrix(5.137707e-02 0 0 5.137707e-02 -5604.4966 -6983.8677)">
	</pattern>
	<polygon id="XMLID_125_" class="st19" points="429.5,464.2 390.8,548.3 342.1,471.4 	"/>
	
		<pattern  id="XMLID_226_" xlink:href="#Nouveau_motif_3" patternTransform="matrix(5.137707e-02 0 0 5.137707e-02 -5604.4966 -6983.8677)">
	</pattern>
	<polygon id="XMLID_126_" class="st20" points="480.1,396.5 432.7,458.8 395.8,367.2 	"/>
	
		<pattern  id="XMLID_227_" xlink:href="#Nouveau_motif_3" patternTransform="matrix(5.137707e-02 0 0 5.137707e-02 -5604.4966 -6983.8677)">
	</pattern>
	<polygon id="XMLID_127_" class="st21" points="282.5,367.2 245.6,458.8 198.2,396.5 	"/>
	
		<pattern  id="XMLID_228_" xlink:href="#Nouveau_motif_3" patternTransform="matrix(5.137707e-02 0 0 5.137707e-02 -5604.4966 -6983.8677)">
	</pattern>
	<polygon id="XMLID_128_" class="st22" points="390,366.1 339.2,466.1 288.3,366.1 	"/>
	<polygon id="XMLID_129_" class="st4" points="438.6,295.3 438.6,295.4 438.3,298.8 437.9,298.7 437.5,298.7 435.4,298.6 342.7,292 
		340,291.8 339.2,291.8 339,291.8 339.2,290.1 339.2,290 339.3,288.3 339.4,288.4 339.4,288.4 340.9,288.5 424.7,294.4 424.7,294.4 
			"/>
	<path id="XMLID_130_" class="st4" d="M339.3,291.8l-0.1,0l-0.8,0.1l-2.7,0.2l-92.7,6.5l-1.8,0.1l-0.4,0l-0.8,0.1l-0.2-3.4v0l14.3-1
		l0,0l83.4-5.9l1.4-0.1c0,0,0,0,0,0h0l0.1,0l0.1,1.7v0L339.3,291.8z"/>
	<rect id="XMLID_131_" x="337.4" y="265" class="st4" width="3.4" height="25"/>
	<path id="XMLID_132_" class="st4" d="M394.8,364.7L394.8,364.7c0,0.1,0,0.1-0.1,0.2c0,0.1,0,0.1-0.1,0.2c0,0,0,0,0,0.1
		c0,0.1-0.1,0.1-0.1,0.1c0,0.1-0.1,0.1-0.1,0.1c-0.1,0.1-0.1,0.1-0.2,0.2c0,0-0.1,0.1-0.1,0.1c0,0,0,0,0,0c-0.1,0-0.1,0.1-0.2,0.1
		c0,0-0.1,0-0.1,0.1c0,0-0.1,0-0.1,0.1c0,0,0,0,0,0c0,0,0,0-0.1,0c-0.1,0-0.1,0-0.2,0.1c0,0,0,0-0.1,0c0,0,0,0,0,0
		c-0.1,0-0.1,0-0.2,0H285.5c-0.1,0-0.1,0-0.2,0h0c0,0,0,0,0,0h-0.1c-0.1,0-0.1,0-0.1,0c0,0-0.1,0-0.1,0c0,0,0,0,0,0
		c-0.1,0-0.1-0.1-0.2-0.1c-0.1,0-0.2-0.1-0.2-0.1c0,0,0,0-0.1,0c0,0-0.1-0.1-0.1-0.1c-0.1,0-0.1-0.1-0.1-0.1c0,0,0-0.1-0.1-0.1
		c0,0-0.1-0.1-0.1-0.1l-0.1-0.1l0,0c0,0,0-0.1-0.1-0.1c0,0,0-0.1,0-0.1c0,0,0-0.1,0-0.1c0,0,0-0.1,0-0.1c0,0,0,0,0-0.1
		c0,0,0-0.1,0-0.1c0-0.1,0-0.1,0-0.2c0-0.1,0-0.1,0-0.2c0,0,0-0.1,0-0.1c0,0,0-0.1,0-0.1c0-0.1,0-0.1,0-0.2c0,0,0,0,0-0.1
		c0,0,0,0,0-0.1c0,0,0,0,0,0c0,0,0,0,0,0c0,0,0,0,0,0c0,0,0,0,0,0c0,0,0,0,0,0c0,0,0,0,0,0v0c0,0,0,0,0-0.1c0,0,0,0,0,0s0,0,0,0
		c0,0,0-0.1,0-0.1c0,0,0,0,0,0s0,0,0,0c0,0,0-0.1,0.1-0.1c0,0,0,0,0,0c0,0,0.1-0.1,0.1-0.1c0,0,0,0,0.1-0.1c0,0,0.1-0.1,0.2-0.1
		c0.1-0.1,0.1-0.1,0.2-0.1c0,0,0.1,0,0.1,0c0,0,0,0,0,0h0c0,0,0,0,0,0l0.1,0l0,0h0c0,0,0,0,0.1,0h0c0.1,0,0.1,0,0.2-0.1h0
		c0,0,0,0,0.1,0c0,0,0,0,0,0c0.1,0,0.1,0,0.2,0h107.6c0.4,0,0.8,0.2,1.1,0.4c0.1,0.1,0.2,0.1,0.2,0.2l0.1,0.1c0,0.1,0.1,0.1,0.1,0.2
		c0,0,0,0.1,0,0.1c0,0.1,0.1,0.1,0.1,0.2c0,0.1,0.1,0.2,0.1,0.2c0,0,0,0.1,0,0.1C394.9,364.4,394.9,364.6,394.8,364.7z"/>
	<path id="XMLID_133_" class="st4" d="M393.1,366.1c-0.3,0-0.7-0.1-1-0.3c-0.8-0.5-1-1.6-0.5-2.4l45.3-67.3c0.5-0.8,1.6-1,2.4-0.5
		c0.8,0.5,1,1.6,0.5,2.4l-45.3,67.3C394.2,365.8,393.7,366.1,393.1,366.1z"/>
	<path id="XMLID_134_" class="st4" d="M285.5,366.1c-0.5,0-1.1-0.3-1.4-0.8L238.4,298c-0.5-0.8-0.3-1.8,0.5-2.4
		c0.8-0.5,1.8-0.3,2.4,0.5l45.6,67.3c0.5,0.8,0.3,1.8-0.5,2.4C286.2,366,285.8,366.1,285.5,366.1z"/>
	<path id="XMLID_135_" class="st4" d="M285.5,366.1c-0.3,0-0.7-0.1-1-0.3c-0.8-0.6-0.9-1.6-0.4-2.4l53.7-74.3
		c0.6-0.8,1.6-0.9,2.4-0.4c0.8,0.6,0.9,1.6,0.4,2.4l-53.7,74.3C286.6,365.8,286,366.1,285.5,366.1z"/>
	<path id="XMLID_136_" class="st4" d="M393.1,366.1c-0.5,0-1.1-0.2-1.4-0.7l-54-74.3c-0.6-0.8-0.4-1.8,0.4-2.4
		c0.8-0.6,1.8-0.4,2.4,0.4l54,74.3c0.6,0.8,0.4,1.8-0.4,2.4C393.8,366,393.5,366.1,393.1,366.1z"/>
	<path id="XMLID_137_" class="st4" d="M287.2,364.3L287.2,364.3c0,0.1,0,0.2,0,0.3c0,0.1-0.1,0.2-0.1,0.3c0,0,0,0,0,0
		c0,0,0,0.1-0.1,0.1l0,0.1l-0.4,0.9l-1,2.4l-37.1,92.3l-0.6,1.5l-0.2,0.6c0,0.1-0.1,0.2-0.2,0.4c0,0,0,0,0,0c0,0.1-0.1,0.1-0.1,0.2
		c-0.1,0.1-0.2,0.2-0.3,0.3c-0.1,0.1-0.2,0.1-0.3,0.2c-0.1,0-0.2,0.1-0.2,0.1c-0.1,0-0.2,0.1-0.3,0.1c-0.1,0-0.2,0-0.3,0
		c0,0-0.1,0-0.1,0h0c0,0,0,0-0.1,0c0,0-0.1,0-0.1,0c0,0,0,0,0,0c0,0,0,0,0,0c-0.1,0-0.1,0-0.2,0c0,0-0.1,0-0.1-0.1
		c-0.1,0-0.1,0-0.1-0.1c0,0-0.1,0-0.1-0.1c0,0-0.1-0.1-0.1-0.1l0,0c-0.1,0-0.1-0.1-0.2-0.2c0,0-0.1-0.1-0.1-0.1
		c-0.1-0.1-0.2-0.2-0.2-0.4c0,0,0,0,0,0c0,0,0,0,0-0.1c0,0,0-0.1,0-0.1c0,0,0,0,0,0c0-0.1,0-0.1,0-0.2c0,0,0-0.1,0-0.1
		c0-0.1,0-0.2,0-0.3c0,0,0,0,0,0c0-0.1,0-0.2,0-0.3c0,0,0-0.1,0-0.1c0-0.1,0-0.2,0.1-0.3l0-0.1c0,0,0,0,0,0l0-0.1l1-2.6l36.9-91.6
		l1.1-2.6l0.3-0.7c0,0,0,0,0-0.1c0,0,0,0,0-0.1c0,0,0,0,0,0c0,0,0,0,0,0s0,0,0,0c0,0,0,0,0-0.1c0,0,0,0,0,0c0,0,0,0,0,0v0h0v0
		c0,0,0,0,0,0c0,0,0,0,0,0c0,0,0,0,0,0s0,0,0,0c0,0,0,0,0,0c0,0,0,0,0,0c0,0,0,0,0,0h0c0,0,0,0,0,0c0,0,0,0,0,0c0,0,0-0.1,0.1-0.1
		c0,0,0,0,0,0c0,0,0,0,0.1-0.1l0,0c0,0,0.1-0.1,0.1-0.1c0,0,0.1-0.1,0.2-0.1c0,0,0,0,0.1,0c0.1,0,0.1-0.1,0.2-0.1c0,0,0.1,0,0.1,0
		c0,0,0,0,0,0h0c0,0,0.1,0,0.1,0c0,0,0,0,0,0c0.1,0,0.1,0,0.2,0c0,0,0.1,0,0.1,0h0c0,0,0,0,0.1,0c0,0,0,0,0,0c0,0,0,0,0,0
		c0.1,0,0.1,0,0.2,0c0.1,0,0.2,0,0.3,0c0.1,0,0.2,0.1,0.3,0.1c0,0,0.1,0,0.1,0.1c0,0,0.1,0,0.1,0.1c0,0,0,0,0,0
		c0.1,0,0.1,0.1,0.2,0.1c0.1,0.1,0.1,0.1,0.2,0.2c0,0,0,0,0.1,0.1c0,0,0,0,0,0c0,0,0,0,0,0c0,0,0,0,0,0c0,0.1,0.1,0.1,0.1,0.2
		c0,0,0,0,0,0.1c0,0,0,0,0,0c0,0,0,0,0,0c0,0,0,0,0,0c0,0,0,0,0,0.1c0,0,0,0.1,0,0.1c0,0,0,0,0,0c0,0.1,0.1,0.2,0.1,0.2
		C287.2,364.2,287.2,364.2,287.2,364.3z"/>
	<path id="XMLID_138_" class="st4" d="M433.9,462.1c0,0.1,0,0.2,0,0.3c0,0,0,0.1,0,0.1c0,0.1,0,0.2-0.1,0.2c0,0.1-0.1,0.2-0.1,0.2
		l0,0c0,0.1-0.1,0.2-0.1,0.2c0,0.1-0.1,0.1-0.2,0.2c0,0,0,0,0,0c-0.1,0.1-0.2,0.2-0.3,0.3c0,0,0,0-0.1,0c-0.1,0-0.1,0.1-0.2,0.1
		c0,0-0.1,0-0.1,0c0,0,0,0,0,0c-0.1,0-0.1,0-0.2,0.1c0,0,0,0,0,0c0,0-0.1,0-0.1,0c0,0,0,0-0.1,0h0c-0.1,0-0.1,0-0.1,0
		c-0.1,0-0.2,0-0.3,0c-0.1,0-0.2,0-0.3-0.1c-0.1,0-0.1-0.1-0.2-0.1c-0.1,0-0.1-0.1-0.2-0.1c-0.1,0-0.1-0.1-0.2-0.1
		c-0.1-0.1-0.1-0.1-0.2-0.2c0,0,0,0-0.1-0.1c0,0-0.1-0.1-0.1-0.1l0,0c0-0.1-0.1-0.1-0.1-0.2l0,0c0,0,0-0.1,0-0.1l0,0l-0.2-0.6
		l-0.6-1.5l-37.2-92.3v0l-1-2.4l-0.4-1.1c0,0,0-0.1,0-0.1c0,0,0,0,0-0.1c0-0.1,0-0.1-0.1-0.2c0-0.1,0-0.1,0-0.2c0,0,0-0.1,0-0.1
		c0-0.1,0-0.2,0-0.3c0-0.1,0-0.2,0.1-0.3c0-0.1,0-0.1,0.1-0.2l0,0c0,0,0,0,0,0c0,0,0-0.1,0.1-0.1c0,0,0-0.1,0.1-0.1s0,0,0-0.1
		c0,0,0.1-0.1,0.1-0.1c0,0,0.1-0.1,0.1-0.1c0,0,0.1-0.1,0.1-0.1c0.1-0.1,0.1-0.1,0.2-0.1c0,0,0,0,0.1,0c0,0,0,0,0.1,0c0,0,0,0,0,0
		c0,0,0,0,0.1,0c0,0,0,0,0,0c0,0,0.1,0,0.1,0c0.1,0,0.2-0.1,0.3-0.1c0.2,0,0.4,0,0.6,0c0.2,0,0.3,0.1,0.5,0.1c0,0,0,0,0,0
		c0.1,0.1,0.3,0.2,0.4,0.3c0.1,0.1,0.2,0.2,0.3,0.4c0,0,0,0,0,0c0.1,0.1,0.1,0.2,0.1,0.2c0,0.1,0,0.1,0.1,0.2l0.3,0.8v0l0.1,0.1
		l0.9,2.3l36.9,91.6l1,2.6l0,0.1c0,0,0,0,0,0c0,0,0,0,0,0c0,0,0,0,0,0.1c0,0.1,0,0.1,0.1,0.2c0,0,0,0,0,0c0,0,0,0,0,0
		C433.9,461.9,433.9,462,433.9,462.1C433.9,462.1,433.9,462.1,433.9,462.1z"/>
	<path id="XMLID_139_" class="st4" d="M200.5,525.2c-0.4,0-0.7-0.1-1-0.3c-0.8-0.6-0.9-1.6-0.4-2.4l45.6-61.2
		c0.6-0.8,1.6-0.9,2.4-0.4c0.8,0.6,0.9,1.6,0.4,2.4l-45.6,61.2C201.5,524.9,201,525.2,200.5,525.2z"/>
	<path id="XMLID_140_" class="st4" d="M478.1,525.2c-0.5,0-1-0.2-1.4-0.7l-45.9-61.2c-0.6-0.8-0.4-1.8,0.3-2.4
		c0.8-0.6,1.8-0.4,2.4,0.3l45.9,61.2c0.6,0.8,0.4,1.8-0.3,2.4C478.8,525.1,478.5,525.2,478.1,525.2z"/>
	<path id="XMLID_141_" class="st4" d="M394.3,365.1l-0.4,0.7l-0.3,0.6l-1,2L342.1,468l-1,1.9l-0.4,0.8l0,0.1c0,0,0,0,0,0
		c0,0,0,0,0,0c0,0,0,0,0,0c0,0,0,0.1-0.1,0.1c0,0,0,0.1,0,0.1l0,0c0,0,0,0,0,0c0,0,0,0,0,0.1c0,0.1-0.1,0.1-0.2,0.2c0,0,0,0,0,0
		c0,0-0.1,0.1-0.1,0.1c0,0-0.1,0-0.1,0.1c0,0,0,0,0,0c0,0-0.1,0-0.1,0.1c-0.1,0-0.1,0.1-0.2,0.1c-0.1,0-0.2,0.1-0.3,0.1
		c0,0-0.1,0-0.1,0h0c0,0-0.1,0-0.1,0c-0.1,0-0.1,0-0.1,0c0,0-0.1,0-0.1,0l-0.1,0h0c0,0-0.1,0-0.1,0c0,0-0.1,0-0.1,0
		c-0.1,0-0.1,0-0.2-0.1c0,0,0,0,0,0c0,0,0,0,0,0c-0.1,0-0.1,0-0.1-0.1c-0.1,0-0.1-0.1-0.2-0.1c-0.1,0-0.1-0.1-0.2-0.1c0,0,0,0,0,0
		c-0.1-0.1-0.1-0.1-0.2-0.2c0,0,0,0,0-0.1c0,0,0,0,0-0.1c0,0,0,0,0,0c0,0,0,0,0,0c0,0,0,0,0,0c0,0,0,0,0,0c0,0,0,0,0,0c0,0,0,0,0,0
		l0-0.1c0,0,0,0,0,0c0,0,0-0.1,0-0.1c0,0,0-0.1,0-0.1c0-0.1-0.1-0.2-0.1-0.3c0,0,0,0,0,0c0-0.1,0-0.1,0-0.1c0-0.1,0-0.2,0-0.3v0
		c0-0.1,0-0.1,0.1-0.2c0,0,0-0.1,0-0.1c0,0,0,0,0-0.1c0,0,0,0,0-0.1c0,0,0-0.1,0-0.1l0,0l0.5-1l1-2L390,366.1l0.9-1.8l0.3-0.6l0,0
		c0,0,0,0,0,0c0,0,0-0.1,0.1-0.1c0,0,0-0.1,0.1-0.1c0,0,0,0,0-0.1c0,0,0.1-0.1,0.1-0.1c0,0,0.1-0.1,0.1-0.1c0,0,0,0,0,0
		c0.1,0,0.1-0.1,0.2-0.1c0,0,0.1-0.1,0.1-0.1h0c0,0,0.1,0,0.1-0.1c0,0,0.1,0,0.1-0.1c0,0,0,0,0,0c0,0,0,0,0,0c0,0,0,0,0,0
		c0.1,0,0.2-0.1,0.3-0.1c0,0,0.1,0,0.1,0c0.1,0,0.2,0,0.2,0c0.1,0,0.2,0,0.3,0c0.1,0,0.2,0,0.3,0.1h0l0,0c0.1,0,0.1,0,0.1,0.1
		c0,0,0,0,0,0c0.1,0.1,0.3,0.2,0.4,0.3c0.1,0.1,0.2,0.2,0.3,0.4c0,0,0,0,0,0c0.1,0.1,0.1,0.2,0.1,0.2c0,0.1,0,0.1,0.1,0.2
		C394.6,364.3,394.5,364.7,394.3,365.1z"/>
	<path id="XMLID_142_" class="st4" d="M340.9,469.9c0,0,0,0.1,0,0.1c0,0,0,0,0,0c0,0.1,0,0.2-0.1,0.3c0,0,0,0.1-0.1,0.1
		c0,0,0,0.1,0,0.1c0,0,0,0,0,0c0,0,0,0,0,0.1c0,0,0,0,0,0c0,0,0,0,0,0c0,0,0,0,0,0c0,0,0,0,0,0c0,0,0,0.1-0.1,0.1c0,0,0,0.1,0,0.1
		l0,0c0,0,0,0,0,0c0,0,0,0,0,0.1c0,0.1-0.1,0.1-0.2,0.2c0,0,0,0,0,0c0,0-0.1,0.1-0.1,0.1c0,0-0.1,0-0.1,0.1c0,0,0,0,0,0
		c0,0-0.1,0-0.1,0.1c-0.1,0-0.1,0.1-0.2,0.1c-0.1,0-0.2,0.1-0.3,0.1c0,0-0.1,0-0.1,0h0l-0.1,0c-0.1,0-0.1,0-0.1,0c0,0-0.1,0-0.1,0
		l-0.1,0h0c0,0-0.1,0-0.1,0c0,0-0.1,0-0.1,0c-0.1,0-0.1,0-0.2-0.1c0,0,0,0,0,0c0,0,0,0,0,0c-0.1,0-0.1,0-0.1-0.1
		c-0.1,0-0.1-0.1-0.2-0.1c-0.1,0-0.1-0.1-0.2-0.1c0,0,0,0,0,0c-0.1-0.1-0.1-0.1-0.2-0.2c0,0,0,0,0-0.1c0,0,0-0.1-0.1-0.1
		c0,0,0,0,0,0c0,0,0,0,0,0c0,0,0,0,0,0c0,0,0,0,0,0c0,0,0,0,0,0l0-0.1c0,0,0,0,0,0l-0.4-0.8l-1-1.9l-50.6-99.5l-1-2l-0.6-1.2
		l-0.1-0.1l0,0c0,0,0-0.1-0.1-0.1c0,0,0-0.1,0-0.1c0,0,0-0.1,0-0.1c0,0,0-0.1,0-0.1c0,0,0,0,0-0.1c0,0,0-0.1,0-0.1
		c0-0.1,0-0.1,0-0.2c0-0.1,0-0.1,0-0.2c0,0,0-0.1,0-0.1c0,0,0-0.1,0-0.1c0-0.1,0-0.1,0-0.2c0,0,0,0,0-0.1c0,0,0,0,0-0.1c0,0,0,0,0,0
		c0,0,0,0,0,0c0,0,0,0,0-0.1c0,0,0,0,0,0c0,0,0,0,0,0v0h0c0,0,0,0,0-0.1c0,0,0,0,0,0c0,0,0,0,0-0.1c0,0,0,0,0,0s0,0,0,0
		c0,0,0-0.1,0.1-0.1c0,0,0,0,0,0c0,0,0,0,0.1-0.1c0,0,0,0,0-0.1c0,0,0,0,0.1-0.1c0,0,0.1-0.1,0.2-0.1c0.1-0.1,0.1-0.1,0.2-0.1
		c0,0,0.1,0,0.1,0c0,0,0,0,0,0h0c0,0,0,0,0,0l0.1,0l0,0h0c0,0,0,0,0.1,0h0c0.1,0,0.1,0,0.2-0.1h0c0,0,0,0,0.1,0c0,0,0,0,0,0
		c0.1,0,0.1,0,0.2,0c0.1,0,0.2,0,0.2,0c0,0,0.1,0,0.1,0c0.1,0,0.2,0.1,0.3,0.1c0,0,0,0,0,0c0,0,0.1,0,0.1,0c0,0,0.1,0,0.1,0.1
		c0,0,0,0,0,0c0,0,0.1,0.1,0.1,0.1c0,0,0,0,0.1,0c0,0,0.1,0.1,0.1,0.1c0,0,0.1,0.1,0.1,0.1c0,0,0,0,0.1,0.1c0,0,0,0.1,0.1,0.1l0,0
		c0,0,0,0.1,0.1,0.1c0,0,0.1,0.1,0.1,0.1c0,0,0,0,0,0c0,0,0,0,0,0h0c0,0,0,0,0,0l0.4,0.9l0.8,1.6l50.9,100.1l1,2l0.5,0.9l0,0.1v0
		c0,0,0,0,0,0l0,0c0,0,0,0.1,0.1,0.1c0,0,0,0.1,0,0.1c0,0.1,0,0.1,0,0.2c0,0,0,0,0,0c0,0,0,0.1,0,0.1
		C340.9,469.7,340.9,469.8,340.9,469.9z"/>
	<path id="XMLID_143_" class="st4" d="M340.8,470.2C340.9,470.2,340.8,470.2,340.8,470.2c0,0.1-0.1,0.2-0.1,0.4c0,0,0,0.1,0,0.1
		c0,0,0,0,0,0.1c0,0,0,0.1-0.1,0.1c0,0,0,0.1-0.1,0.1c0,0-0.1,0.1-0.1,0.1l-0.4,0.6h0l-1,1.6l-48.5,77l-1.7,2.6
		c-0.1,0.2-0.3,0.4-0.5,0.5c-0.1,0-0.1,0.1-0.2,0.1c-0.1,0-0.1,0.1-0.2,0.1s-0.1,0.1-0.2,0.1c-0.1,0-0.3,0.1-0.4,0.1h0
		c-0.2,0-0.3,0-0.4-0.1c-0.1,0-0.2-0.1-0.2-0.1c-0.3-0.1-0.5-0.3-0.7-0.6c0,0-0.1-0.1-0.1-0.1c0,0-0.1-0.1-0.1-0.1c0,0,0,0,0,0
		l0-0.1c-0.2-0.5-0.2-1.1,0.1-1.5l0.7-1.1l1-1.5l48.4-76.9l1-1.6l0.5-0.7c0,0,0,0,0,0l0,0l0,0c0-0.1,0.1-0.1,0.1-0.2
		c0,0,0.1-0.1,0.1-0.1c0,0,0-0.1,0.1-0.1c0,0,0,0,0,0c0,0,0,0,0,0c0,0,0.1-0.1,0.1-0.1c0.1-0.1,0.1-0.1,0.2-0.2c0,0,0.1,0,0.1-0.1
		c0,0,0,0,0,0c0.1,0,0.1-0.1,0.2-0.1c0,0,0,0,0,0c0.1,0,0.1,0,0.2,0h0c0,0,0,0,0.1,0c0,0,0,0,0,0l0.1,0h0l0.1,0c0,0,0,0,0,0h0
		c0.1,0,0.1,0,0.2,0c0,0,0,0,0,0c0,0,0,0,0.1,0c0,0,0.1,0,0.1,0c0,0,0,0,0.1,0c0,0,0.1,0,0.1,0c0,0,0,0,0.1,0h0c0,0,0.1,0,0.1,0.1
		c0,0,0.1,0,0.1,0.1c0,0,0,0,0,0c0,0,0.1,0.1,0.1,0.1c0,0,0.1,0,0.1,0.1c0,0,0.1,0.1,0.1,0.1c0.1,0.1,0.1,0.1,0.1,0.2c0,0,0,0,0,0.1
		v0l0,0v0c0,0,0,0,0,0c0.1,0.1,0.1,0.2,0.1,0.4c0,0,0,0,0,0c0,0.1,0,0.1,0,0.2C340.9,469.9,340.9,470,340.8,470.2z"/>
	<path id="XMLID_144_" class="st4" d="M392.7,552.5l0,0.1c0,0,0,0,0,0c0,0.1-0.1,0.1-0.1,0.2c-0.2,0.3-0.4,0.5-0.7,0.7
		c-0.1,0-0.2,0.1-0.2,0.1c-0.2,0-0.3,0.1-0.5,0.1c-0.1,0-0.1,0-0.2,0c-0.1,0-0.1,0-0.2,0s-0.1,0-0.2-0.1c-0.1,0-0.1-0.1-0.2-0.1
		s-0.1-0.1-0.2-0.1c-0.2-0.1-0.3-0.3-0.5-0.5l-1.7-2.6l-48.8-77l-1-1.6l-0.5-0.7c0,0,0,0,0-0.1c0,0,0,0,0,0c0,0,0,0,0-0.1
		c0,0,0-0.1,0-0.1c0,0,0,0,0-0.1c0,0,0,0,0-0.1c0,0,0-0.1,0-0.1c0-0.1,0-0.1,0-0.2c0,0,0-0.1,0-0.1c0,0,0,0,0,0c0-0.1,0-0.1,0-0.1
		c0-0.1,0-0.1,0-0.2c0,0,0-0.1,0-0.1c0,0,0,0,0-0.1c0-0.1,0-0.1,0-0.2c0,0,0-0.1,0-0.1c0,0,0,0,0-0.1l0,0c0,0,0,0,0-0.1c0,0,0,0,0,0
		c0,0,0,0,0-0.1c0,0,0,0,0,0c0,0,0,0,0-0.1c0-0.1,0.1-0.1,0.1-0.2c0,0,0.1-0.1,0.1-0.1c0,0,0-0.1,0.1-0.1c0,0,0.1-0.1,0.1-0.1
		c0,0,0.1-0.1,0.1-0.1c0.1-0.1,0.1-0.1,0.2-0.2c0,0,0.1,0,0.1-0.1c0,0,0,0,0,0c0.1,0,0.1-0.1,0.2-0.1c0.1,0,0.2,0,0.2-0.1
		c0,0,0,0,0,0c0,0,0,0,0.1,0c0.1,0,0.2,0,0.4,0h0c0.1,0,0.1,0,0.2,0c0,0,0,0,0,0c0.1,0,0.1,0,0.2,0.1c0,0,0,0,0,0c0,0,0,0,0,0
		c0.1,0,0.1,0.1,0.2,0.1h0c0.1,0,0.1,0.1,0.2,0.1c0,0,0,0,0,0c0,0,0.1,0.1,0.1,0.1c0,0,0.1,0,0.1,0.1c0.1,0.1,0.2,0.2,0.2,0.3
		c0,0,0,0,0,0c0,0,0,0,0,0c0,0,0,0,0,0l0,0v0l0,0l0.4,0.7l1,1.6l48.7,76.9l1,1.5l0.7,1.1C392.8,551.4,392.9,552,392.7,552.5z"/>
	<path id="XMLID_145_" class="st4" d="M433.9,462.3c0,0.1,0,0.1,0,0.1c0,0,0,0,0,0.1c0,0,0,0,0,0c0,0,0,0.1,0,0.1c0,0,0,0,0,0
		c0,0.1,0,0.1-0.1,0.2c0,0,0,0,0,0c0,0,0,0.1-0.1,0.1c0,0,0,0,0,0l-0.1,0.2l-1.1,2.4L394.3,549l-1.6,3.5l0,0.1c0,0,0,0,0,0
		c0,0.1-0.1,0.1-0.1,0.2c-0.2,0.3-0.4,0.5-0.7,0.7c-0.1,0-0.2,0.1-0.2,0.1c-0.2,0-0.3,0.1-0.5,0.1c-0.1,0-0.1,0-0.2,0
		c-0.1,0-0.1,0-0.2,0s-0.1,0-0.2-0.1c0,0-0.1,0-0.1,0c0,0-0.1,0-0.1-0.1c-0.1,0-0.1-0.1-0.2-0.1c-0.2-0.1-0.3-0.3-0.5-0.5
		c-0.3-0.5-0.4-1.1-0.1-1.6l0.5-1l0.9-1.9l38.6-84.1l0.9-2l0.2-0.5l0-0.1c0,0,0-0.1,0.1-0.1c0-0.1,0-0.1,0.1-0.1c0,0,0-0.1,0-0.1
		c0,0,0,0,0-0.1c0-0.1,0.1-0.1,0.1-0.1c0.1-0.1,0.1-0.1,0.2-0.2c0.1-0.1,0.3-0.2,0.4-0.3c0.3-0.1,0.6-0.2,0.9-0.1l0.2,0
		c0.1,0,0.1,0,0.2,0.1c0,0,0,0,0,0c0.1,0,0.1,0,0.1,0.1c0.1,0,0.1,0,0.1,0.1c0,0,0.1,0,0.1,0c0.1,0,0.1,0.1,0.1,0.1
		c0.1,0,0.1,0.1,0.1,0.1c0,0,0,0,0,0c0,0,0,0,0.1,0.1c0,0,0,0,0,0c0,0,0,0,0,0c0,0,0.1,0.1,0.1,0.1c0,0.1,0.1,0.1,0.1,0.2
		c0,0,0,0,0,0c0,0,0,0,0,0.1c0,0,0,0.1,0,0.1h0c0,0,0,0.1,0,0.1c0,0.1,0,0.1,0,0.2c0,0,0,0.1,0,0.1
		C433.9,462.2,433.9,462.3,433.9,462.3z"/>
	<path id="XMLID_146_" class="st4" d="M289,552.8c-0.1,0.2-0.3,0.4-0.5,0.5c-0.1,0-0.1,0.1-0.2,0.1c0,0-0.1,0-0.1,0.1
		c0,0-0.1,0-0.1,0c-0.1,0-0.1,0.1-0.2,0.1c-0.1,0-0.3,0.1-0.4,0.1h0c-0.2,0-0.3,0-0.4-0.1c-0.1,0-0.2-0.1-0.2-0.1
		c-0.3-0.1-0.5-0.3-0.7-0.6c0,0-0.1-0.1-0.1-0.1c0,0-0.1-0.1-0.1-0.1c0,0,0,0,0,0l0-0.1l-1.6-3.5l-38.6-83.4l-1.1-2.4l0,0l-0.1-0.1
		c0,0,0-0.1,0-0.1c0,0,0,0,0-0.1c0-0.1-0.1-0.2-0.1-0.3c0-0.1,0-0.1,0-0.2c0,0,0-0.1,0-0.1s0-0.1,0-0.1c0,0,0,0,0,0c0,0,0-0.1,0-0.1
		c0,0,0-0.1,0-0.1c0-0.1,0-0.2,0.1-0.3c0,0,0-0.1,0-0.1c0,0,0,0,0,0c0,0,0-0.1,0.1-0.1c0,0,0,0,0-0.1c0,0,0.1-0.1,0.1-0.1
		c0,0,0,0,0.1-0.1c0,0,0,0,0,0c0-0.1,0.1-0.1,0.1-0.1c0.1-0.1,0.2-0.2,0.3-0.2c0,0,0,0,0,0c0.1,0,0.1,0,0.1-0.1c0,0,0,0,0,0
		c0.1,0,0.1,0,0.2-0.1c0,0,0,0,0,0c0,0,0,0,0,0c0,0,0.1,0,0.1,0c0.2,0,0.4,0,0.7,0.1c0.1,0,0.1,0,0.2,0.1c0.1,0,0.1,0.1,0.2,0.1
		c0.1,0.1,0.2,0.1,0.3,0.2c0,0,0.1,0.1,0.1,0.1l0,0.1l0,0.1c0.1,0.1,0.1,0.2,0.2,0.2c0,0,0,0,0,0c0,0,0,0,0,0c0,0,0,0,0,0
		c0,0,0,0,0,0l0.3,0.6v0l0.9,2l38.9,84.1l0.9,1.9l0.5,1C289.4,551.7,289.3,552.3,289,552.8z"/>
	<path id="XMLID_147_" class="st4" d="M287.2,364.3L287.2,364.3c0,0.1,0,0.2,0,0.3c0,0,0,0,0,0.1c0,0.1,0,0.2-0.1,0.3c0,0,0,0,0,0
		c0,0,0,0,0,0c0,0,0,0.1-0.1,0.1c0,0.1-0.1,0.1-0.1,0.2c0,0.1-0.1,0.1-0.1,0.2c0,0,0,0.1-0.1,0.1c0,0,0,0,0,0
		c-0.1,0.1-0.1,0.1-0.2,0.2l0,0c0,0-0.1,0-0.1,0.1c0,0-0.1,0.1-0.1,0.1c-0.1,0-0.1,0.1-0.2,0.1c0,0,0,0,0,0l-0.1,0l-0.1,0l-0.1,0
		l-1.1,0.4l-2.1,0.7l-84.3,29.3l-1,0.4l-0.7,0.2l-0.5,0.2c0,0,0,0,0,0c0,0-0.1,0-0.1,0c-0.1,0-0.1,0-0.2,0c0,0,0,0,0,0c0,0,0,0,0,0
		c-0.1,0-0.2,0-0.2,0c-0.1,0-0.1,0-0.2,0c0,0,0,0,0,0c0,0-0.1,0-0.1,0c0,0-0.1,0-0.1,0c-0.1,0-0.1,0-0.2-0.1c0,0,0,0,0,0
		c0,0-0.1,0-0.1,0c0,0,0,0,0,0c-0.1-0.1-0.2-0.1-0.3-0.2c-0.1,0-0.1-0.1-0.1-0.1c0,0,0,0,0,0c0,0-0.1-0.1-0.1-0.1c0,0,0,0,0,0
		c0,0,0,0-0.1-0.1c0,0,0,0,0,0c0,0,0,0,0,0h0c0,0,0,0,0,0c0,0,0,0,0,0c0,0,0-0.1-0.1-0.1c0,0,0,0,0,0c0-0.1-0.1-0.2-0.1-0.2
		c0-0.1-0.1-0.2-0.1-0.2c0,0,0,0,0-0.1c0,0,0,0,0-0.1c0,0,0-0.1,0-0.1v-0.1c0-0.1,0-0.2,0-0.2c0,0,0-0.1,0-0.1c0,0,0,0,0,0
		c0,0,0-0.1,0-0.1c0,0,0,0,0-0.1c0,0,0,0,0,0c0,0,0,0,0,0c0,0,0,0,0,0c0,0,0,0,0-0.1c0,0,0,0,0,0c0,0,0,0,0-0.1c0,0,0,0,0-0.1
		c0-0.1,0.1-0.1,0.1-0.2c0,0,0,0,0,0c0,0,0,0,0,0c0,0,0,0,0,0c0,0,0,0,0,0c0,0,0,0,0,0c0,0,0,0,0,0c0,0,0.1-0.1,0.1-0.1c0,0,0,0,0,0
		c0,0,0,0,0,0c0,0,0,0,0,0c0,0,0,0,0,0c0,0,0.1-0.1,0.1-0.1c0,0,0,0,0,0c0,0,0,0,0,0c0,0,0,0,0,0c0,0,0,0,0.1,0c0,0,0,0,0,0
		c0,0,0,0,0.1,0c0,0,0,0,0,0c0,0,0,0,0,0c0,0,0.1,0,0.1,0c0,0,0,0,0,0c0,0,0,0,0.1,0c0,0,0,0,0.1,0l1.2-0.4l2.5-0.9l84.2-29.2
		l1.6-0.6l0.4-0.1l0,0l0.1,0l0,0h0c0.1,0,0.1,0,0.2,0c0,0,0.1,0,0.1,0h0c0,0,0,0,0.1,0c0,0,0,0,0,0c0.1,0,0.1,0,0.2,0
		c0.1,0,0.2,0,0.2,0c0,0,0.1,0,0.1,0c0.1,0,0.1,0,0.1,0c0,0,0.1,0,0.1,0c0,0,0,0,0,0c0,0,0.1,0,0.1,0.1c0,0,0.1,0,0.1,0.1
		c0,0,0,0,0,0c0.1,0,0.1,0.1,0.2,0.1c0.1,0.1,0.1,0.1,0.2,0.2c0,0,0,0,0.1,0.1c0,0,0,0,0,0c0,0,0,0,0,0c0,0,0,0,0,0
		c0,0.1,0.1,0.1,0.1,0.2c0,0,0,0,0,0.1c0,0,0,0,0,0c0,0,0,0,0,0h0c0,0,0,0,0,0c0,0,0,0,0,0.1c0,0,0,0.1,0,0.1c0,0,0,0,0,0
		c0,0.1,0.1,0.2,0.1,0.2C287.2,364.2,287.2,364.2,287.2,364.3z"/>
	<path id="XMLID_148_" class="st4" d="M484.6,395.6L484.6,395.6c0,0.1,0,0.2,0,0.3c0,0,0,0.1,0,0.1c0,0,0,0.1,0,0.1
		c0,0.1-0.1,0.2-0.1,0.3c0,0.1-0.1,0.1-0.1,0.2c0,0,0,0,0,0c0,0,0,0,0,0c0,0,0,0,0,0c-0.1,0.1-0.2,0.2-0.3,0.3l0,0c0,0,0,0,0,0
		s0,0,0,0c0,0-0.1,0.1-0.1,0.1c-0.1,0-0.1,0.1-0.2,0.1c0,0,0,0,0,0c0,0-0.1,0-0.1,0c0,0-0.1,0-0.1,0c0,0,0,0-0.1,0h0c0,0,0,0,0,0
		c-0.1,0-0.1,0-0.2,0c-0.1,0-0.2,0-0.2,0c0,0,0,0,0,0c0,0,0,0,0,0c-0.1,0-0.1,0-0.2,0c0,0,0,0-0.1,0l-0.5-0.2l-0.7-0.2l-1-0.4
		l-84.3-29.3l-2.1-0.7l-1.1-0.4l-0.3-0.1c-0.5-0.2-0.9-0.6-1.1-1.1c0,0,0,0,0-0.1c0-0.1,0-0.1-0.1-0.2c0-0.1,0-0.1,0-0.2
		c0,0,0-0.1,0-0.1c0-0.1,0-0.2,0-0.3c0-0.1,0-0.2,0.1-0.3c0-0.1,0-0.1,0.1-0.2c0,0,0,0,0-0.1c0,0,0-0.1,0.1-0.1c0,0,0-0.1,0.1-0.1
		s0,0,0-0.1c0.1-0.1,0.1-0.1,0.2-0.2c0,0,0.1-0.1,0.1-0.1c0.1-0.1,0.1-0.1,0.2-0.1c0,0,0,0,0.1,0c0,0,0,0,0.1,0c0,0,0,0,0,0
		c0,0,0,0,0.1,0c0,0,0,0,0,0c0,0,0.1,0,0.1,0c0.1,0,0.2-0.1,0.3-0.1c0,0,0.1,0,0.1,0c0.1,0,0.2,0,0.2,0c0.1,0,0.2,0,0.2,0h0
		c0.1,0,0.2,0,0.2,0.1c0,0,0,0,0,0l0,0l0.8,0.3l0.1,0l1.4,0.5l84,29.1l2.5,0.9l1.2,0.4c0,0,0,0,0,0h0c0,0,0,0,0.1,0h0
		c0,0,0.1,0,0.1,0.1c0,0,0,0,0,0c0,0,0,0,0,0c0,0,0.1,0.1,0.1,0.1c0,0,0,0,0.1,0s0,0,0,0h0c0,0,0,0,0,0c0.1,0,0.1,0.1,0.2,0.1
		c0,0,0,0,0,0c0,0,0,0,0,0c0,0,0,0,0,0c0,0,0,0,0,0l0,0l0,0l0,0l0,0c0,0,0,0,0,0l0,0c0,0,0,0,0,0c0,0,0,0,0,0.1l0,0l0,0l0,0.1
		c0,0,0,0.1,0,0.1c0,0,0,0.1,0,0.1c0,0.1,0,0.1,0,0.1c0,0,0,0,0,0c0,0,0,0,0,0v0c0,0,0,0,0,0c0,0,0,0,0,0.1
		C484.6,395.5,484.6,395.5,484.6,395.6z"/>
	<path id="XMLID_149_" class="st4" d="M247.8,462.5c0,0.1,0,0.1,0,0.1c0,0.1,0,0.1,0,0.2c0,0.1-0.1,0.2-0.2,0.4c0,0,0,0,0,0
		c0,0.1-0.1,0.1-0.1,0.2c-0.1,0.1-0.2,0.2-0.3,0.3c-0.1,0.1-0.2,0.1-0.3,0.2c-0.1,0-0.2,0.1-0.2,0.1c-0.1,0-0.2,0.1-0.3,0.1
		c-0.1,0-0.2,0-0.3,0c0,0-0.1,0-0.1,0h0c0,0,0,0-0.1,0c0,0-0.1,0-0.1,0c0,0,0,0,0,0c0,0,0,0,0,0c-0.1,0-0.1,0-0.2,0
		c0,0-0.1,0-0.1-0.1c-0.1,0-0.1,0-0.1-0.1c0,0-0.1,0-0.1-0.1c0,0-0.1-0.1-0.1-0.1l0,0c-0.1,0-0.1-0.1-0.2-0.2c0,0-0.1-0.1-0.1-0.1
		c0,0-0.1-0.1-0.1-0.1l-0.1-0.1l-0.7-0.9L197.3,401l-1.9-2.5l-1.3-1.7c0,0,0,0-0.1-0.1c0,0,0,0,0,0l0,0c0,0,0,0,0,0c0,0,0,0,0,0
		c0,0,0-0.1-0.1-0.1c0,0,0,0,0,0c0,0,0,0,0,0c0-0.1-0.1-0.2-0.1-0.2c0-0.1-0.1-0.2-0.1-0.2c0,0,0,0,0-0.1c0,0,0,0,0-0.1
		c0,0,0-0.1,0-0.1v-0.1c0-0.1,0-0.2,0-0.2c0,0,0-0.1,0-0.1c0,0,0-0.1,0-0.1c0,0,0,0,0-0.1c0,0,0,0,0,0c0,0,0,0,0,0c0,0,0,0,0-0.1
		c0,0,0,0,0,0c0,0,0,0,0-0.1l0,0l0-0.1h0c0-0.1,0.1-0.1,0.1-0.2c0,0,0,0,0,0c0,0,0,0,0,0c0,0,0,0,0,0c0,0,0,0,0,0c0,0,0,0,0,0
		c0,0,0,0,0,0c0,0,0.1-0.1,0.1-0.1c0,0,0,0,0,0c0,0,0,0,0,0c0,0,0,0,0,0c0,0,0,0,0,0c0,0,0.1-0.1,0.1-0.1c0,0,0,0,0,0c0,0,0,0,0,0
		c0,0,0,0,0,0c0,0,0,0,0.1,0c0,0,0.1-0.1,0.1-0.1c0,0,0,0,0,0c0,0,0,0,0,0c0,0,0.1,0,0.1,0c0,0,0,0,0,0c0,0,0,0,0.1,0c0,0,0,0,0.1,0
		c0,0,0.1,0,0.1,0c0,0,0,0,0,0c0.1,0,0.1,0,0.2,0c0,0,0.1,0,0.1,0c0,0,0,0,0,0h0.1c0.1,0,0.1,0,0.2,0c0,0,0.1,0,0.1,0
		c0.1,0,0.1,0,0.2,0.1c0,0,0,0,0,0c0,0,0,0,0,0c0,0,0.1,0,0.1,0c0,0,0,0,0,0c0,0,0.1,0,0.1,0.1c0,0,0,0,0.1,0c0,0,0,0,0,0
		c0,0,0,0,0,0c0,0,0.1,0,0.1,0.1c0,0,0.1,0.1,0.1,0.1c0,0,0,0,0,0c0,0,0.1,0.1,0.1,0.1c0,0,0,0.1,0.1,0.1c0,0,0,0,0,0s0,0,0,0l0,0
		l0.6,0.7l0.8,1.1l47.4,62.4l1.4,1.8l0.4,0.5l0,0.1l0,0.1c0.1,0.1,0.1,0.2,0.2,0.2c0,0,0,0,0,0c0,0,0,0,0,0c0,0,0,0.1,0,0.1
		c0,0,0,0.1,0,0.1c0,0.1,0,0.1,0.1,0.2c0,0,0,0,0,0c0,0.1,0,0.1,0,0.2C247.8,462.2,247.8,462.4,247.8,462.5z"/>
	<path id="XMLID_150_" class="st4" d="M202.2,523.4c0,0.4-0.1,0.7-0.3,1c0,0-0.1,0.1-0.1,0.1c-0.1,0.1-0.2,0.2-0.2,0.2c0,0,0,0,0,0
		c0,0-0.1,0.1-0.1,0.1c-0.1,0-0.1,0.1-0.2,0.1c-0.1,0-0.1,0.1-0.2,0.1c-0.1,0-0.2,0.1-0.2,0.1c-0.1,0-0.2,0-0.2,0c0,0,0,0,0,0h-0.1
		c-0.1,0-0.2,0-0.3,0c0,0,0,0,0,0c-0.1,0-0.2,0-0.2-0.1c0,0,0,0-0.1,0c0,0,0,0,0,0c-0.1,0-0.1-0.1-0.2-0.1c0,0-0.1,0-0.1-0.1
		c-0.1-0.1-0.1-0.1-0.2-0.2c-0.1-0.1-0.1-0.2-0.2-0.2c0,0,0,0,0,0c0,0,0-0.1-0.1-0.1c0,0,0-0.1-0.1-0.1c0,0,0,0,0,0c0,0,0-0.1,0-0.1
		c0-0.1-0.1-0.1-0.1-0.2c0-0.1,0-0.2-0.1-0.3v-0.1l-0.3-7.1l-4.6-115.9l-0.2-4.3l0-0.3c0,0,0,0,0-0.1c0,0,0-0.1,0-0.1v-0.1
		c0-0.1,0-0.2,0-0.3c0,0,0,0,0-0.1c0-0.1,0-0.1,0.1-0.2c0,0,0-0.1,0-0.1c0,0,0,0,0,0c0,0,0,0,0-0.1c0,0,0,0,0-0.1
		c0-0.1,0.1-0.1,0.1-0.1c0,0,0,0,0,0c0,0,0,0,0,0c0,0,0,0,0,0c0,0,0,0,0,0c0-0.1,0.1-0.1,0.1-0.2c0,0,0,0,0,0c0,0,0,0,0,0
		c0,0,0-0.1,0.1-0.1c0,0,0.1-0.1,0.1-0.1c0,0,0,0,0,0h0c0,0,0,0,0,0c0,0,0.1-0.1,0.1-0.1c0,0,0,0,0,0c0,0,0,0,0,0c0,0,0,0,0.1,0
		c0,0,0,0,0,0c0,0,0.1,0,0.1,0c0,0,0,0,0,0c0,0,0,0,0.1,0c0.1,0,0.1,0,0.2-0.1c0,0,0,0,0,0c0,0,0.1,0,0.1,0c0,0,0.1,0,0.1,0
		c0,0,0,0,0,0c0,0,0,0,0,0c0.1,0,0.1,0,0.2,0c0.1,0,0.1,0,0.2,0c0,0,0,0,0,0c0,0,0.1,0,0.1,0c0,0,0.1,0,0.1,0c0,0,0.1,0,0.1,0
		c0,0,0,0,0.1,0c0,0,0.1,0,0.1,0.1c0,0,0.1,0,0.1,0.1c0,0,0.1,0,0.1,0.1c0,0,0.1,0,0.1,0.1c0,0,0,0,0,0c0,0,0,0,0,0c0,0,0,0,0,0
		c0,0,0.1,0.1,0.1,0.1c0,0,0,0.1,0.1,0.1c0,0,0,0,0,0l0,0c0,0,0,0,0,0c0,0.1,0.1,0.1,0.1,0.2c0,0,0,0,0,0c0,0,0,0.1,0,0.1
		c0,0,0,0.1,0,0.1c0,0,0,0,0,0c0,0,0,0,0,0c0,0,0,0,0,0.1c0,0,0,0.1,0,0.1c0,0.1,0,0.1,0,0.2c0,0,0,0.1,0,0.1v0.1l0,0l0,0.3l0,0.8
		l0.2,4.2l0,0l4.7,117.6l0.1,3.6L202.2,523.4z"/>
	<path id="XMLID_151_" class="st4" d="M484.6,395.6L484.6,395.6l0,0.6l-0.2,4.3l-4.3,115.9l0,0l-0.3,7.1v0.1c0,0.1,0,0.2,0,0.3
		c0,0,0,0.1,0,0.1c0,0.1,0,0.2-0.1,0.2c0,0,0,0,0,0c0,0,0,0,0,0c0,0.1-0.1,0.2-0.1,0.2c0,0.1-0.1,0.1-0.1,0.2c0,0,0,0-0.1,0.1
		c0,0-0.1,0.1-0.1,0.1c0,0-0.1,0-0.1,0.1c0,0-0.1,0.1-0.1,0.1c-0.1,0-0.1,0.1-0.2,0.1c0,0,0,0,0,0c0,0,0,0-0.1,0
		c-0.1,0-0.2,0.1-0.2,0.1c0,0,0,0,0,0c-0.1,0-0.2,0-0.3,0H478c-0.1,0-0.2,0-0.2,0c0,0-0.1,0-0.1,0c-0.1,0-0.2-0.1-0.2-0.1
		c-0.1,0-0.2-0.1-0.3-0.2c-0.1-0.1-0.2-0.1-0.2-0.2c-0.1-0.1-0.1-0.2-0.2-0.3c-0.2-0.3-0.3-0.6-0.3-1l0-1.2l0.1-3.6L481,401l0.2-4.1
		l0-0.9v0l0-0.3c0-0.1,0-0.3,0-0.4c0,0,0-0.1,0-0.1c0,0,0-0.1,0-0.1c0,0,0-0.1,0-0.1c0-0.1,0.1-0.2,0.1-0.2c0-0.1,0.1-0.1,0.1-0.2
		c0,0,0,0,0,0c0,0,0.1-0.1,0.1-0.1c0,0,0,0,0,0c0,0,0.1-0.1,0.1-0.1c0,0,0,0,0,0c0.1-0.1,0.3-0.2,0.4-0.2c0,0,0.1,0,0.1,0
		c0.1,0,0.1,0,0.2,0c0,0,0,0,0,0c0,0,0.1,0,0.1,0c0,0,0,0,0,0c0.1,0,0.1,0,0.2,0h0.1c0,0,0,0,0,0c0,0,0,0,0,0c0.1,0,0.1,0,0.2,0
		c0,0,0.1,0,0.1,0c0.1,0,0.2,0,0.2,0.1c0,0,0,0,0,0h0c0,0,0,0,0.1,0c0,0,0,0,0.1,0c0,0,0,0,0,0c0,0,0,0,0.1,0c0,0,0,0,0,0
		c0,0,0.1,0,0.1,0c0,0,0,0,0,0c0,0,0.1,0,0.1,0.1c0,0,0,0,0,0c0.1,0.1,0.1,0.1,0.2,0.2c0,0,0,0,0,0c0,0,0.1,0.1,0.1,0.1l0,0
		c0,0,0,0,0,0h0l0,0l0,0.1c0,0,0,0,0,0c0,0,0,0.1,0.1,0.1l0,0.1c0,0,0,0.1,0,0.1c0,0.1,0.1,0.2,0.1,0.3c0,0,0,0,0,0s0,0,0,0
		c0,0,0,0,0,0s0,0,0,0c0,0,0,0,0,0C484.6,395.4,484.6,395.5,484.6,395.6z"/>
	<path id="XMLID_152_" class="st4" d="M484.6,395.6L484.6,395.6c0,0.2,0,0.2,0,0.3c0,0.1,0,0.1,0,0.2c0,0,0,0.1,0,0.1
		c0,0.1-0.1,0.2-0.1,0.3c0,0.1-0.1,0.1-0.1,0.2c0,0,0,0,0,0l0,0c0,0,0,0,0,0h0c0,0,0,0,0,0l-1.3,1.7L481,401l-46.6,61.3l-0.7,0.9
		l0,0c0,0,0,0,0,0c0,0.1-0.1,0.1-0.2,0.2c0,0,0,0,0,0c-0.1,0.1-0.2,0.2-0.3,0.3c0,0,0,0-0.1,0c-0.1,0-0.1,0.1-0.2,0.1
		c0,0-0.1,0-0.1,0c0,0,0,0,0,0c-0.1,0-0.1,0-0.2,0.1h0c0,0,0,0,0,0c0,0-0.1,0-0.1,0c0,0,0,0-0.1,0h0c0,0-0.1,0-0.1,0
		c-0.1,0-0.2,0-0.3,0c-0.1,0-0.2,0-0.3-0.1c-0.1,0-0.1-0.1-0.2-0.1c-0.1,0-0.1-0.1-0.2-0.1c0,0-0.1,0-0.1-0.1c0,0-0.1,0-0.1-0.1
		c-0.1-0.1-0.1-0.1-0.2-0.2c0,0,0,0-0.1-0.1c0,0-0.1-0.1-0.1-0.1l0,0c0,0-0.1-0.1-0.1-0.1c0,0,0-0.1,0-0.1c0,0,0-0.1,0-0.1l0,0
		c0,0,0-0.1,0-0.1c0,0,0,0,0,0c0,0,0-0.1,0-0.1c0-0.1,0-0.3,0-0.4c0-0.1,0-0.1,0-0.2c0,0,0,0,0,0c0,0,0-0.1,0-0.1c0,0,0,0,0,0
		c0,0,0,0,0,0c0,0,0-0.1,0.1-0.1c0-0.1,0-0.1,0.1-0.1c0,0,0-0.1,0-0.1c0,0,0,0,0-0.1c0,0,0,0,0-0.1l0-0.1l0.4-0.6l1.4-1.8l47.4-62.4
		l0.8-1.1l0.5-0.7c0,0,0,0,0,0c0,0,0,0,0,0c0,0,0,0,0,0c0,0,0,0,0,0c0,0,0,0,0,0c0.1-0.1,0.2-0.2,0.3-0.3c0,0,0.1-0.1,0.1-0.1
		c0,0,0.1-0.1,0.1-0.1c0.1-0.1,0.2-0.1,0.2-0.1c0,0,0.1,0,0.1,0c0.1,0,0.1,0,0.2-0.1c0,0,0.1,0,0.1,0c0.1,0,0.2,0,0.3,0c0,0,0,0,0,0
		c0,0,0.1,0,0.1,0c0,0,0.1,0,0.1,0c0,0,0,0,0.1,0c0,0,0.1,0,0.1,0c0,0,0,0,0,0c0,0,0,0,0.1,0h0c0,0,0.1,0,0.1,0.1c0,0,0,0,0,0
		c0,0,0,0,0,0c0,0,0,0,0,0c0.1,0,0.1,0.1,0.1,0.1c0,0,0,0,0,0h0v0c0,0,0,0,0,0c0.1,0,0.1,0.1,0.2,0.1c0,0,0,0,0,0c0,0,0,0,0,0
		c0,0,0,0,0,0c0,0,0,0,0,0l0,0c0,0,0,0,0,0c0,0,0,0,0,0l0,0c0,0,0,0,0,0l0,0c0,0,0,0,0,0c0,0,0,0,0,0.1l0,0l0,0l0,0.1
		c0,0,0,0.1,0,0.1c0,0,0,0.1,0,0.1c0,0.1,0,0.1,0,0.1c0,0,0,0,0,0v0c0,0,0,0,0,0c0,0,0,0,0,0.1C484.6,395.5,484.6,395.5,484.6,395.6
		z"/>
	<path id="XMLID_153_" class="st4" d="M507.8,362.5l-2.4,3.5L485,395.6l-0.4,0.6l-0.2,0.4c0,0,0,0,0,0.1c0,0-0.1,0.1-0.1,0.1
		c0,0,0,0,0,0c0,0,0,0,0,0h0c0,0,0,0,0,0c-0.1,0.2-0.3,0.3-0.5,0.4c0,0,0,0,0,0c0,0,0,0-0.1,0c0,0,0,0,0,0c0,0,0,0-0.1,0
		c0,0,0,0,0,0c-0.1,0-0.1,0-0.1,0c0,0,0,0-0.1,0c0,0,0,0-0.1,0c0,0,0,0,0,0h0c-0.1,0-0.1,0-0.2,0c-0.2,0-0.4,0-0.6-0.1
		c0,0-0.1,0-0.1,0c0,0,0,0,0,0c-0.1,0-0.1-0.1-0.1-0.1c-0.2-0.1-0.3-0.2-0.4-0.3v0c0,0-0.1-0.1-0.1-0.1c0,0-0.1-0.1-0.1-0.1
		c0,0,0,0,0-0.1c0,0,0-0.1-0.1-0.1c0,0,0,0,0-0.1c0,0,0,0,0,0c0-0.1-0.1-0.1-0.1-0.2c0,0,0,0,0,0c0-0.1,0-0.1,0-0.1
		c0-0.1,0-0.1,0-0.2c0-0.1,0-0.2,0-0.2c0-0.1,0-0.1,0-0.2c0,0,0,0,0,0c0,0,0,0,0-0.1c0-0.1,0-0.1,0-0.2c0,0,0-0.1,0-0.1
		c0,0,0-0.1,0-0.1c0,0,0-0.1,0-0.1c0,0,0,0,0,0c0,0,0-0.1,0.1-0.1c0,0,0-0.1,0.1-0.1c0,0,0,0,0,0c0,0,0,0,0,0c0,0,0,0,0,0l0.7-1
		l1-1.4l20.9-30.4l0.8-1.2c0.5-0.8,1.6-1,2.4-0.4c0.4,0.3,0.7,0.7,0.7,1.2C508.1,361.7,508,362.1,507.8,362.5z"/>
	<path id="XMLID_154_" class="st4" d="M484.6,395.6L484.6,395.6c0,0.2,0,0.2,0,0.3c0,0.1,0,0.2-0.1,0.3c0,0.1-0.1,0.1-0.1,0.2
		c0,0,0,0,0,0.1c0,0,0,0.1,0,0.1c0,0,0,0,0,0.1c0,0-0.1,0.1-0.1,0.1c0,0,0,0,0,0c0,0,0,0,0,0l0,0c-0.1,0.2-0.3,0.3-0.5,0.4
		c0,0,0,0,0,0c0,0,0,0-0.1,0c0,0,0,0,0,0c0,0,0,0-0.1,0c0,0,0,0,0,0c-0.1,0-0.1,0-0.1,0c0,0,0,0-0.1,0c0,0,0,0-0.1,0h0l0,0h0
		c-0.1,0-0.1,0-0.2,0c-0.2,0-0.4,0-0.6-0.1c0,0-0.1,0-0.1,0c-0.1,0-0.1-0.1-0.2-0.1c-0.2-0.1-0.3-0.2-0.4-0.3v0c0,0-0.1-0.1-0.1-0.1
		c0,0-0.1-0.1-0.1-0.1c0,0,0,0,0-0.1c0,0,0-0.1-0.1-0.1c0,0,0,0,0-0.1c0,0,0,0,0,0c0-0.1-0.1-0.1-0.1-0.2c0,0,0,0,0,0l-0.1-0.2
		l-0.2-0.6l-1.2-2.7l-41.5-92.3l-0.8-1.7l-0.1-0.2l-0.3-0.7c-0.4-0.9,0-1.9,0.9-2.3c0.2-0.1,0.4-0.1,0.6-0.1c0,0,0,0,0.1,0
		c0.4,0,0.8,0.1,1.2,0.4c0.1,0.1,0.1,0.1,0.2,0.2c0.1,0.1,0.2,0.3,0.3,0.4l3.6,7.9l0,0l39.5,87.8l1.2,2.6l0,0.1l0,0l0,0.1
		c0,0,0,0.1,0,0.1c0,0.1,0.1,0.2,0.1,0.3c0,0,0,0,0,0c0,0,0,0,0,0c0,0,0,0,0,0c0,0,0,0,0,0C484.6,395.4,484.6,395.5,484.6,395.6z"/>
	<path id="XMLID_155_" class="st4" d="M522.8,445.7c0,0.3,0,0.7-0.2,0.9c0,0.1-0.1,0.1-0.1,0.2c-0.1,0.2-0.2,0.3-0.4,0.4
		c-0.3,0.2-0.7,0.4-1,0.4c-0.5,0-1-0.2-1.4-0.7l-0.7-0.9l-34.6-45.6l-1.5-2l-1-1.4h0l-0.2-0.3l-0.1-0.1c-0.1-0.2-0.2-0.3-0.3-0.5
		c0-0.1,0-0.1,0-0.1c0-0.1,0-0.1,0-0.2c0-0.1,0-0.2,0-0.2c0-0.1,0-0.3,0-0.4c0,0,0-0.1,0-0.1c0,0,0-0.1,0-0.1c0,0,0-0.1,0-0.1
		c0-0.1,0.1-0.2,0.1-0.2c0-0.1,0.1-0.1,0.1-0.2c0,0,0,0,0,0c0,0,0.1-0.1,0.1-0.1c0,0,0,0,0,0c0,0,0.1-0.1,0.1-0.1c0,0,0,0,0,0
		c0.1-0.1,0.3-0.2,0.4-0.2c0,0,0.1,0,0.1,0c0.1,0,0.1,0,0.2,0c0,0,0,0,0,0c0,0,0.1,0,0.1,0c0,0,0,0,0,0c0,0,0.1,0,0.1,0
		c0,0,0,0,0.1,0h0.1c0,0,0,0,0,0c0,0,0,0,0,0c0,0,0.1,0,0.1,0c0,0,0.1,0,0.1,0c0,0,0.1,0,0.1,0c0,0,0.1,0,0.1,0c0,0,0,0,0,0
		c0,0,0.1,0,0.1,0c0,0,0,0,0,0c0,0,0,0,0.1,0c0,0,0,0,0.1,0c0,0,0,0,0,0c0,0,0,0,0.1,0c0,0,0.1,0,0.1,0.1c0,0,0.1,0,0.1,0.1
		c0,0,0,0,0,0c0.1,0.1,0.1,0.1,0.2,0.2c0,0,0,0,0,0c0,0,0.1,0.1,0.1,0.1l0,0l0,0l0,0l0,0.1l0,0l0,0l0.6,0.8l33.2,43.7v0l4.3,5.6
		c0.2,0.2,0.3,0.5,0.3,0.7c0,0,0,0,0,0C522.8,445.6,522.8,445.7,522.8,445.7C522.8,445.7,522.8,445.7,522.8,445.7z"/>
	<path id="XMLID_156_" class="st4" d="M241.6,297.8l-0.3,0.7l-0.1,0.2l-0.9,2l-41.7,92h0l-1.2,2.7l-0.3,0.6l-0.1,0.3l0,0.1
		c0,0,0,0,0,0c0,0.1-0.1,0.1-0.1,0.2c0,0,0,0,0,0h0c0,0,0,0,0,0c0,0.1-0.1,0.1-0.1,0.2c-0.1,0.1-0.1,0.1-0.2,0.2
		c0,0-0.1,0.1-0.1,0.1c-0.1,0-0.1,0.1-0.2,0.1c0,0-0.1,0-0.1,0.1c0,0-0.1,0-0.1,0c-0.2,0-0.3,0.1-0.5,0.1c-0.1,0-0.2,0-0.3,0
		c0,0-0.1,0-0.1,0c-0.1,0-0.1,0-0.2-0.1c0,0,0,0,0,0c0,0-0.1,0-0.1,0c0,0,0,0,0,0c-0.1,0-0.1-0.1-0.2-0.1c0,0,0,0,0,0
		c-0.1,0-0.1-0.1-0.2-0.1c0,0,0,0-0.1-0.1c0,0-0.1-0.1-0.1-0.1c0,0,0,0,0,0c0,0,0,0-0.1-0.1c0,0,0,0,0,0h0c0,0,0,0,0,0c0,0,0,0,0,0
		c0,0,0-0.1-0.1-0.1c0,0,0,0,0,0c-0.1-0.1-0.1-0.2-0.1-0.3c0-0.1-0.1-0.2-0.1-0.2c0,0,0-0.1,0-0.1c0,0,0,0,0,0v0c0,0,0-0.1,0-0.1
		v-0.1c0-0.1,0-0.2,0-0.2c0,0,0,0,0,0c0-0.1,0-0.1,0-0.2c0,0,0-0.1,0-0.1c0,0,0,0,0,0c0,0,0-0.1,0.1-0.1l0-0.1v0l0-0.1l0,0l1.2-2.6
		l39.8-87.8l3.3-7.3v0l0.3-0.7c0.1-0.2,0.3-0.4,0.4-0.6c0.2-0.1,0.4-0.3,0.6-0.3c0,0,0.1,0,0.1,0c0.1,0,0.1,0,0.2,0c0,0,0,0,0,0
		c0,0,0.1,0,0.1,0c0.3,0,0.6,0,0.8,0.1c0.5,0.2,0.9,0.7,1,1.2C241.8,297.1,241.7,297.4,241.6,297.8z"/>
	<path id="XMLID_157_" class="st4" d="M340.9,469.9c0,0,0,0.1,0,0.1c0,0,0,0,0,0c0,0,0,0.1,0,0.1c0,0,0,0,0,0c0,0.1,0,0.1,0,0.2
		c0,0,0,0.1-0.1,0.1c0,0,0,0.1,0,0.1c0,0,0,0,0,0.1c0,0,0,0.1-0.1,0.1c0,0,0,0.1-0.1,0.1c0,0-0.1,0.1-0.1,0.1
		c-0.1,0.1-0.1,0.2-0.2,0.2c-0.1,0.1-0.2,0.1-0.2,0.2c0,0,0,0,0,0c-0.1,0.1-0.2,0.1-0.3,0.1c-0.1,0-0.2,0.1-0.3,0.1
		c-0.1,0-0.2,0-0.3,0c-0.1,0-0.2,0-0.2,0l-0.7-0.1l-2-0.2l-87.3-7.2l-2-0.2l-0.8-0.1l-0.1,0c0,0,0,0,0,0c0,0,0,0-0.1,0
		c-0.1,0-0.1,0-0.1,0c0,0,0,0,0,0c0,0-0.1,0-0.1,0c-0.1,0-0.1,0-0.2-0.1c-0.1,0-0.1,0-0.1-0.1c-0.2-0.1-0.3-0.2-0.5-0.4
		c-0.1-0.1-0.2-0.2-0.2-0.4c0,0,0-0.1,0-0.1c0,0,0,0,0-0.1c0-0.1-0.1-0.2-0.1-0.3c0-0.1,0-0.1,0-0.2c0,0,0-0.1,0-0.1s0-0.1,0-0.1
		c0,0,0,0,0,0c0,0,0-0.1,0-0.1c0,0,0,0,0,0c0,0,0-0.1,0-0.1c0-0.1,0-0.2,0.1-0.3c0,0,0-0.1,0-0.1c0,0,0,0,0,0v0c0,0,0-0.1,0.1-0.1
		c0,0,0,0,0-0.1c0,0,0.1-0.1,0.1-0.1c0,0,0,0,0.1-0.1c0,0,0,0,0,0c0-0.1,0.1-0.1,0.1-0.1c0.1-0.1,0.2-0.2,0.3-0.2
		c0.1,0,0.1-0.1,0.2-0.1c0.1,0,0.1,0,0.2-0.1c0,0,0,0,0,0c0,0,0,0,0,0c0,0,0,0,0,0c0,0,0.1,0,0.1,0c0,0,0.1,0,0.1,0
		c0.1,0,0.1,0,0.2,0l0.1,0l0.6,0.1l1.6,0.1l87.7,7.2l1.9,0.2l1,0.1h0l0.1,0c0,0,0,0,0,0h0c0.1,0,0.1,0,0.2,0c0,0,0,0,0,0
		c0,0,0,0,0.1,0c0,0,0.1,0,0.1,0h0c0,0,0,0,0.1,0c0,0,0,0,0,0c0,0,0.1,0,0.1,0c0,0,0,0,0.1,0h0c0.1,0,0.1,0.1,0.2,0.1c0,0,0,0,0,0
		c0,0,0.1,0.1,0.1,0.1c0,0,0.1,0,0.1,0.1c0,0,0.1,0.1,0.1,0.1c0.1,0.1,0.1,0.1,0.1,0.2c0,0,0,0,0,0c0,0,0,0,0,0.1v0c0,0,0,0,0,0
		c0,0,0,0,0,0c0,0,0,0.1,0.1,0.1c0,0.1,0.1,0.2,0.1,0.2c0,0,0,0,0,0c0,0,0,0.1,0,0.1c0,0,0,0.1,0,0.1
		C340.9,469.8,340.9,469.9,340.9,469.9z"/>
	<path id="XMLID_158_" class="st4" d="M433.9,462.1c0,0.1,0,0.1,0,0.2c0,0.1,0,0.1,0,0.1c0,0,0,0.1,0,0.1c0,0,0,0,0,0
		c0,0,0,0.1,0,0.1c0,0,0,0,0,0c0,0,0,0.1,0,0.1c0,0,0,0,0,0.1c0,0,0,0,0,0c0,0,0,0.1-0.1,0.1c0,0,0,0,0,0c0,0.1-0.1,0.1-0.1,0.2
		c0,0,0,0,0,0c-0.1,0.2-0.3,0.4-0.5,0.5c0,0,0,0-0.1,0h0c-0.1,0-0.1,0.1-0.2,0.1c0,0-0.1,0-0.1,0c0,0-0.1,0-0.1,0c0,0,0,0,0,0
		c0,0,0,0,0,0c-0.1,0-0.1,0-0.2,0c0,0,0,0,0,0l-0.1,0l-0.8,0.1l-2,0.2l-87.3,7.2l-2,0.2l-0.8,0.1l-0.1,0c-0.1,0-0.1,0-0.1,0
		c-0.1,0-0.2,0-0.3,0c-0.1,0-0.2,0-0.2-0.1c-0.3-0.1-0.6-0.4-0.8-0.6c0,0-0.1-0.1-0.1-0.1c0,0,0,0,0,0c0,0,0,0,0-0.1c0,0,0,0,0,0
		c0-0.1,0-0.1-0.1-0.2c0,0,0-0.1,0-0.1c0-0.1,0-0.2-0.1-0.3c0,0,0,0,0,0c0-0.1,0-0.1,0-0.1c0-0.1,0-0.2,0-0.3c0,0,0,0,0-0.1
		c0-0.1,0-0.1,0-0.2c0,0,0-0.1,0-0.1c0,0,0,0,0-0.1l0,0c0,0,0,0,0-0.1c0,0,0,0,0,0c0,0,0-0.1,0.1-0.1c0-0.1,0.1-0.1,0.1-0.2
		c0,0,0.1-0.1,0.1-0.1c0,0,0-0.1,0.1-0.1c0,0,0.1-0.1,0.1-0.1c0,0,0.1-0.1,0.1-0.1c0.1-0.1,0.1-0.1,0.2-0.2c0,0,0.1,0,0.1-0.1
		c0,0,0,0,0,0c0.1,0,0.1-0.1,0.2-0.1c0,0,0,0,0,0c0.1,0,0.1,0,0.2,0c0,0,0,0,0,0c0,0,0,0,0.1,0c0,0,0,0,0,0l0.1,0l1-0.1l1.9-0.2
		l87.7-7.2l1.5-0.1l0.6-0.1l0.1,0c0.1,0,0.1,0,0.2,0c0.1,0,0.1,0,0.1,0c0.1,0,0.1,0,0.2,0c0,0,0,0,0,0c0.1,0,0.1,0,0.2,0.1
		c0,0,0,0,0,0c0.1,0,0.1,0,0.1,0.1c0.1,0,0.1,0,0.1,0.1c0,0,0.1,0,0.1,0c0.1,0,0.1,0.1,0.1,0.1c0.1,0,0.1,0.1,0.1,0.1c0,0,0,0,0,0
		c0,0,0,0,0.1,0.1c0,0,0,0,0,0c0,0,0,0,0,0c0,0,0.1,0.1,0.1,0.1c0,0,0.1,0.1,0.1,0.1c0,0,0,0,0,0c0,0,0,0,0,0c0,0,0,0.1,0,0.1h0
		c0,0,0,0.1,0,0.1c0,0.1,0,0.1,0,0.2C433.9,462.1,433.9,462.1,433.9,462.1C433.9,462.1,433.9,462.1,433.9,462.1z"/>
	<rect x="333.9" y="318.5" class="st4" width="10.7" height="32.3"/>
	<rect x="323.2" y="329.2" class="st4" width="32.3" height="10.7"/>
</g>
<g id="XMLID_159_">
	<g id="XMLID_160_">
		<rect x="1774" y="360.7" class="st4" width="10.7" height="32.3"/>
		<rect x="1763.2" y="371.5" class="st4" width="32.3" height="10.7"/>
	</g>
	<path class="st23" d="M1684.3,547.6h-182.8c-0.3,0-0.5-0.2-0.5-0.5v-172c0-0.3,0.2-0.5,0.5-0.5h182.8c0.3,0,0.5,0.2,0.5,0.5v172
		C1684.8,547.4,1684.6,547.6,1684.3,547.6z"/>
	<rect x="1469.1" y="372.8" class="st4" width="32.4" height="176.8"/>
	
		<pattern  id="SVGID_4_" xlink:href="#Nouveau_motif_3" patternTransform="matrix(4.756524e-02 0 0 4.756524e-02 -5638.1621 -6905.2495)">
	</pattern>
	<path class="st24" d="M1666.8,525h-134.1c-0.3,0-0.5-0.2-0.5-0.5V397.7c0-0.3,0.2-0.5,0.5-0.5h134.1c0.3,0,0.5,0.2,0.5,0.5v126.7
		C1667.3,524.8,1667.1,525,1666.8,525z"/>
	<path class="st23" d="M1666.8,525h-141.7c-0.3,0-0.5-0.2-0.5-0.5v-8.3c0-0.3,0.2-0.5,0.5-0.5h141.7c0.3,0,0.5,0.2,0.5,0.5v8.3
		C1667.3,524.8,1667.1,525,1666.8,525z"/>
	<path class="st23" d="M1828.6,547.6h-98.1c-0.3,0-0.5-0.2-0.5-0.5v-93.8c0-0.3,0.2-0.5,0.5-0.5h98.1c0.3,0,0.5,0.2,0.5,0.5v93.8
		C1829.1,547.4,1828.9,547.6,1828.6,547.6z"/>
	<path class="st23" d="M1837.3,547.6h-115.9c-0.3,0-0.5-0.2-0.5-0.5V444.8c0-0.3,0.2-0.5,0.5-0.5h115.9c0.3,0,0.5,0.2,0.5,0.5v102.3
		C1837.8,547.4,1837.6,547.6,1837.3,547.6z"/>
	<path class="st23" d="M1873.3,547.6h-187.9c-0.3,0-0.5-0.2-0.5-0.5V295.8c0-0.3,0.2-0.5,0.5-0.5h187.9c0.3,0,0.5,0.2,0.5,0.5v251.3
		C1873.8,547.4,1873.6,547.6,1873.3,547.6z"/>
	<path class="st11" d="M1873.5,309.4h-199c-0.3,0-0.5-0.2-0.5-0.5v-13.4c0-0.3,0.2-0.5,0.5-0.5H1874v13.9
		C1874,309.2,1873.8,309.4,1873.5,309.4z"/>
	<path class="st11" d="M1684.3,374.6h-225.1c-0.3,0-0.5-0.2-0.5-0.5v-13.4c0-0.3,0.2-0.5,0.5-0.5h225.1c0.3,0,0.5,0.2,0.5,0.5v13.4
		C1684.8,374.4,1684.6,374.6,1684.3,374.6z"/>
	<line class="st23" x1="1779.3" y1="453.2" x2="1779.3" y2="547.2"/>
	<line class="st11" x1="1547.9" y1="496" x2="1627.5" y2="416.3"/>
	<line class="st11" x1="1585.3" y1="496" x2="1638.6" y2="442.7"/>
	
		<pattern  id="XMLID_229_" xlink:href="#Nouveau_motif_3" patternTransform="matrix(4.756524e-02 0 0 4.756524e-02 -5638.1621 -6905.2495)">
	</pattern>
	<polygon id="XMLID_161_" class="st25" points="1873.8,295.4 1933.6,315.4 1933.6,547.6 1873.8,547.6 	"/>
</g>
<g id="XMLID_162_">
	<rect x="917.7" y="465.2" class="st26" width="78.5" height="83.8"/>
	<rect x="1071.5" y="465.2" class="st26" width="78.5" height="83.8"/>
	<rect x="1080" y="474.3" class="st27" width="61.4" height="74.7"/>
	<rect x="926.2" y="474.3" class="st27" width="61.4" height="74.7"/>
	<g id="XMLID_163_">
		<g id="XMLID_164_">
			<rect x="637.5" y="124.6" class="st3" width="80.8" height="109.6"/>
			<line class="st3" x1="657.3" y1="124.6" x2="657.3" y2="234.2"/>
			<line class="st3" x1="678.1" y1="124.6" x2="678.1" y2="234.2"/>
			<line class="st3" x1="698.9" y1="124.6" x2="698.9" y2="234.2"/>
			<line class="st3" x1="637.5" y1="158.1" x2="718.2" y2="158.1"/>
			<line class="st3" x1="637.5" y1="186.2" x2="718.2" y2="186.2"/>
			<line class="st3" x1="637.5" y1="214.3" x2="718.2" y2="214.3"/>
			<rect x="637.5" y="234.2" class="st3" width="91.7" height="9.1"/>
		</g>
		<g id="XMLID_165_">
			<rect x="756.8" y="124.6" class="st3" width="80.8" height="109.6"/>
			<line class="st3" x1="776.7" y1="124.6" x2="776.7" y2="234.2"/>
			<line class="st3" x1="797.5" y1="124.6" x2="797.5" y2="234.2"/>
			<line class="st3" x1="818.3" y1="124.6" x2="818.3" y2="234.2"/>
			<line class="st3" x1="756.8" y1="158.1" x2="837.6" y2="158.1"/>
			<line class="st3" x1="756.8" y1="186.2" x2="837.6" y2="186.2"/>
			<line class="st3" x1="756.8" y1="214.3" x2="837.6" y2="214.3"/>
			<rect x="756.8" y="234.2" class="st3" width="91.7" height="9.1"/>
		</g>
	</g>
	<g id="XMLID_166_">
		<g id="XMLID_167_">
			<rect x="637.5" y="408.4" class="st3" width="80.8" height="109.6"/>
			<line class="st3" x1="657.3" y1="408.4" x2="657.3" y2="518"/>
			<line class="st3" x1="678.1" y1="408.4" x2="678.1" y2="518"/>
			<line class="st3" x1="698.9" y1="408.4" x2="698.9" y2="518"/>
			<line class="st3" x1="637.5" y1="441.9" x2="718.2" y2="441.9"/>
			<line class="st3" x1="637.5" y1="470" x2="718.2" y2="470"/>
			<line class="st3" x1="637.5" y1="498.1" x2="718.2" y2="498.1"/>
			<rect x="637.5" y="518" class="st3" width="91.7" height="9.1"/>
		</g>
		<g id="XMLID_168_">
			<rect x="756.8" y="408.4" class="st3" width="80.8" height="109.6"/>
			<line class="st3" x1="776.7" y1="408.4" x2="776.7" y2="518"/>
			<line class="st3" x1="797.5" y1="408.4" x2="797.5" y2="518"/>
			<line class="st3" x1="818.3" y1="408.4" x2="818.3" y2="518"/>
			<line class="st3" x1="756.8" y1="441.9" x2="837.6" y2="441.9"/>
			<line class="st3" x1="756.8" y1="470" x2="837.6" y2="470"/>
			<line class="st3" x1="756.8" y1="498.1" x2="837.6" y2="498.1"/>
			<rect x="756.8" y="518" class="st3" width="91.7" height="9.1"/>
		</g>
	</g>
	<g id="XMLID_169_">
		<g id="XMLID_170_">
			<rect x="1351" y="124.6" class="st3" width="80.8" height="109.6"/>
			<line class="st3" x1="1411.9" y1="124.6" x2="1411.9" y2="234.2"/>
			<line class="st3" x1="1391.1" y1="124.6" x2="1391.1" y2="234.2"/>
			<line class="st3" x1="1370.3" y1="124.6" x2="1370.3" y2="234.2"/>
			<line class="st3" x1="1431.7" y1="158.1" x2="1351" y2="158.1"/>
			<line class="st3" x1="1431.7" y1="186.2" x2="1351" y2="186.2"/>
			<line class="st3" x1="1431.7" y1="214.3" x2="1351" y2="214.3"/>
			<rect x="1340" y="234.2" class="st3" width="91.7" height="9.1"/>
		</g>
		<g id="XMLID_171_">
			<rect x="1231.6" y="124.6" class="st3" width="80.8" height="109.6"/>
			<line class="st3" x1="1292.6" y1="124.6" x2="1292.6" y2="234.2"/>
			<line class="st3" x1="1271.8" y1="124.6" x2="1271.8" y2="234.2"/>
			<line class="st3" x1="1250.9" y1="124.6" x2="1250.9" y2="234.2"/>
			<line class="st3" x1="1312.4" y1="158.1" x2="1231.6" y2="158.1"/>
			<line class="st3" x1="1312.4" y1="186.2" x2="1231.6" y2="186.2"/>
			<line class="st3" x1="1312.4" y1="214.3" x2="1231.6" y2="214.3"/>
			<rect x="1220.7" y="234.2" class="st3" width="91.7" height="9.1"/>
		</g>
	</g>
	<g id="XMLID_172_">
		<g id="XMLID_173_">
			<rect x="1351" y="408.4" class="st3" width="80.8" height="109.6"/>
			<line class="st3" x1="1411.9" y1="408.4" x2="1411.9" y2="518"/>
			<line class="st3" x1="1391.1" y1="408.4" x2="1391.1" y2="518"/>
			<line class="st3" x1="1370.3" y1="408.4" x2="1370.3" y2="518"/>
			<line class="st3" x1="1431.7" y1="441.9" x2="1351" y2="441.9"/>
			<line class="st3" x1="1431.7" y1="470" x2="1351" y2="470"/>
			<line class="st3" x1="1431.7" y1="498.1" x2="1351" y2="498.1"/>
			<rect x="1340" y="518" class="st3" width="91.7" height="9.1"/>
		</g>
		<g id="XMLID_174_">
			<rect x="1231.6" y="408.4" class="st3" width="80.8" height="109.6"/>
			<line class="st3" x1="1292.6" y1="408.4" x2="1292.6" y2="518"/>
			<line class="st3" x1="1271.8" y1="408.4" x2="1271.8" y2="518"/>
			<line class="st3" x1="1250.9" y1="408.4" x2="1250.9" y2="518"/>
			<line class="st3" x1="1312.4" y1="441.9" x2="1231.6" y2="441.9"/>
			<line class="st3" x1="1312.4" y1="470" x2="1231.6" y2="470"/>
			<line class="st3" x1="1312.4" y1="498.1" x2="1231.6" y2="498.1"/>
			<rect x="1220.7" y="518" class="st3" width="91.7" height="9.1"/>
		</g>
	</g>
	<g id="XMLID_175_">
		<rect x="1028.4" y="141.9" class="st4" width="10.7" height="32.3"/>
		<rect x="1017.7" y="152.7" class="st4" width="32.3" height="10.7"/>
	</g>
	<polyline id="XMLID_176_" class="st4" points="875.7,386.9 1191,386.9 1192,429.9 875.7,429.9 875.7,386.9 	"/>
	<g id="XMLID_177_">
		<rect x="1028.4" y="392.3" class="st8" width="10.7" height="32.3"/>
		<rect x="1017.7" y="403" class="st8" width="32.3" height="10.7"/>
	</g>
	<rect x="939.6" y="197.4" class="st3" width="188.4" height="27.7"/>
	<rect x="939.6" y="237.2" class="st3" width="188.4" height="27.7"/>
	<rect x="939.6" y="276.5" class="st3" width="188.4" height="27.7"/>
	<g id="XMLID_178_">
		<g id="XMLID_179_">
			<rect x="637.5" y="266.5" class="st3" width="80.8" height="109.6"/>
			<line class="st3" x1="657.3" y1="266.5" x2="657.3" y2="376.1"/>
			<line class="st3" x1="678.1" y1="266.5" x2="678.1" y2="376.1"/>
			<line class="st3" x1="698.9" y1="266.5" x2="698.9" y2="376.1"/>
			<line class="st3" x1="637.5" y1="300" x2="718.2" y2="300"/>
			<line class="st3" x1="637.5" y1="328.1" x2="718.2" y2="328.1"/>
			<line class="st3" x1="637.5" y1="356.2" x2="718.2" y2="356.2"/>
			<rect x="637.5" y="376.1" class="st3" width="91.7" height="9.1"/>
		</g>
		<g id="XMLID_180_">
			<rect x="756.8" y="266.5" class="st3" width="80.8" height="109.6"/>
			<line class="st3" x1="776.7" y1="266.5" x2="776.7" y2="376.1"/>
			<line class="st3" x1="797.5" y1="266.5" x2="797.5" y2="376.1"/>
			<line class="st3" x1="818.3" y1="266.5" x2="818.3" y2="376.1"/>
			<line class="st3" x1="756.8" y1="300" x2="837.6" y2="300"/>
			<line class="st3" x1="756.8" y1="328.1" x2="837.6" y2="328.1"/>
			<line class="st3" x1="756.8" y1="356.2" x2="837.6" y2="356.2"/>
			<rect x="756.8" y="376.1" class="st3" width="91.7" height="9.1"/>
		</g>
	</g>
	<path class="st3" d="M874.7,549H621.3c-0.6,0-1-0.4-1-1V79.2c0-0.6,0.4-1,1-1h253.3c0.6,0,1,0.4,1,1V548
		C875.7,548.5,875.2,549,874.7,549z"/>
	<path class="st3" d="M874.7,92.8H621.3c-0.6,0-1-0.4-1-1V79.2c0-0.6,0.4-1,1-1h253.3c0.6,0,1,0.4,1,1v12.6
		C875.7,92.3,875.2,92.8,874.7,92.8z"/>
	<g id="XMLID_181_">
		<g id="XMLID_182_">
			<rect x="1351" y="266.5" class="st3" width="80.8" height="109.6"/>
			<line class="st3" x1="1411.9" y1="266.5" x2="1411.9" y2="376.1"/>
			<line class="st3" x1="1391.1" y1="266.5" x2="1391.1" y2="376.1"/>
			<line class="st3" x1="1370.3" y1="266.5" x2="1370.3" y2="376.1"/>
			<line class="st3" x1="1431.7" y1="300" x2="1351" y2="300"/>
			<line class="st3" x1="1431.7" y1="328.1" x2="1351" y2="328.1"/>
			<line class="st3" x1="1431.7" y1="356.2" x2="1351" y2="356.2"/>
			<rect x="1340" y="376.1" class="st3" width="91.7" height="9.1"/>
		</g>
		<g id="XMLID_183_">
			<rect x="1231.6" y="266.5" class="st3" width="80.8" height="109.6"/>
			<line class="st3" x1="1292.6" y1="266.5" x2="1292.6" y2="376.1"/>
			<line class="st3" x1="1271.8" y1="266.5" x2="1271.8" y2="376.1"/>
			<line class="st3" x1="1250.9" y1="266.5" x2="1250.9" y2="376.1"/>
			<line class="st3" x1="1312.4" y1="300" x2="1231.6" y2="300"/>
			<line class="st3" x1="1312.4" y1="328.1" x2="1231.6" y2="328.1"/>
			<line class="st3" x1="1312.4" y1="356.2" x2="1231.6" y2="356.2"/>
			<rect x="1220.7" y="376.1" class="st3" width="91.7" height="9.1"/>
		</g>
	</g>
	<path class="st3" d="M1446.3,549H1193c-0.6,0-1-0.4-1-1V79.2c0-0.6,0.4-1,1-1h253.3c0.6,0,1,0.4,1,1V548
		C1447.3,548.5,1446.8,549,1446.3,549z"/>
	<path class="st3" d="M1446.3,92.8H1193c-0.6,0-1-0.4-1-1V79.2c0-0.6,0.4-1,1-1h253.3c0.6,0,1,0.4,1,1v12.6
		C1447.3,92.3,1446.8,92.8,1446.3,92.8z"/>
	<path class="st3" d="M1191,549H876.7c-0.6,0-1-0.4-1-1V387.6c0-0.6,0.4-1,1-1H1191c0.6,0,1,0.4,1,1V548
		C1192,548.5,1191.5,549,1191,549z"/>
	<path class="st3" d="M1191,371.1H876.7c-0.6,0-1,0.4-1,1v13.5c0,0.6,0.4,1,1,1H1191c0.6,0,1-0.4,1-1v-13.5
		C1192,371.5,1191.5,371.1,1191,371.1z"/>
	<path class="st28" d="M1150.7,115.6H916.9c-0.6,0-1,0.4-1,1v269c0,0.6,0.4,1,1,1h233.8c0.6,0,1-0.4,1-1v-269
		C1151.7,116,1151.3,115.6,1150.7,115.6z"/>
	
		<pattern  id="XMLID_230_" xlink:href="#Nouveau_motif_3" patternTransform="matrix(4.691610e-02 0 0 4.756524e-02 -5651.7554 -6906.6943)">
	</pattern>
	<polygon id="XMLID_184_" class="st29" points="915.9,116.6 875.7,79.2 875.7,371.1 915.9,371.1 	"/>
	
		<pattern  id="XMLID_231_" xlink:href="#Nouveau_motif_3" patternTransform="matrix(4.691610e-02 0 0 4.756524e-02 -5651.7554 -6906.6943)">
	</pattern>
	<polygon id="XMLID_185_" class="st30" points="1150.7,115.6 1192,79.2 1192,371.1 1150.7,371.1 	"/>
</g>
<g id="XMLID_186_">
	<g id="XMLID_187_">
		
			<pattern  id="SVGID_5_" xlink:href="#Nouveau_motif_3" patternTransform="matrix(2.238016e-02 1.140666e-02 -1.050833e-02 2.061761e-02 -5869.1748 -7120.3262)">
		</pattern>
		<path class="st31" d="M3536.7,384.3L3536.7,384.3c-3.3-1.7-4.7-5.8-3-9.1l11.5-22.6c1.7-3.3,5.8-4.7,9.1-3l0,0
			c3.3,1.7,4.7,5.8,3,9.1l-11.5,22.6C3544.1,384.6,3540,386,3536.7,384.3z"/>
		<path class="st4" d="M3539.5,363.9l-5.8,11.3c-1.7,3.3-0.4,7.4,3,9.1v0c3.3,1.7,7.4,0.4,9.1-3l5.8-11.3L3539.5,363.9z"/>
		
			<pattern  id="SVGID_6_" xlink:href="#Nouveau_motif_3" patternTransform="matrix(-2.195752e-02 1.220046e-02 -1.123961e-02 -2.022825e-02 -6147.3218 -7448.8096)">
		</pattern>
		<path class="st32" d="M3563.5,361.5L3563.5,361.5c3.3-1.8,7.4-0.6,9.2,2.6l12.3,22.2c1.8,3.3,0.6,7.4-2.6,9.2l0,0
			c-3.3,1.8-7.4,0.6-9.2-2.6l-12.3-22.2C3559.1,367.5,3560.2,363.3,3563.5,361.5z"/>
		<path class="st4" d="M3578.9,375.2l-6.2-11.1c-1.8-3.3-6-4.4-9.2-2.6l0,0c-3.3,1.8-4.4,6-2.6,9.2l6.2,11.1L3578.9,375.2z"/>
	</g>
	<line id="XMLID_188_" class="st33" x1="3144.3" y1="322.7" x2="3144.3" y2="547.2"/>
	<line id="XMLID_189_" class="st33" x1="3162.3" y1="314.3" x2="3162.3" y2="547.2"/>
	<path id="XMLID_190_" class="st3" d="M3729.8,36.8h-70.9c-0.3,0-0.6,0.3-0.6,0.6l1,508.9c0,0.3,0.3,0.6,0.6,0.6h71.9
		c0.4,0,0.6-0.3,0.6-0.6l-2-508.9C3730.5,37.1,3730.2,36.8,3729.8,36.8z"/>
	
		<pattern  id="XMLID_232_" xlink:href="#Nouveau_motif_3" patternTransform="matrix(4.691610e-02 0 0 4.756524e-02 -5639.8301 -6905.2495)">
	</pattern>
	<polygon id="XMLID_191_" class="st34" points="3289.2,257.4 3126.7,330.6 3126.7,258.4 3289.2,185.2 	"/>
	<path id="XMLID_192_" class="st3" d="M3288.6,547.2h-161.2c-0.3,0-0.6-0.3-0.6-0.6V258.8c0-0.2,0.1-0.5,0.4-0.6l161.2-72.6
		c0.4-0.2,0.9,0.1,0.9,0.6v360.4C3289.2,546.9,3288.9,547.2,3288.6,547.2z"/>
	
		<pattern  id="XMLID_233_" xlink:href="#Nouveau_motif_3" patternTransform="matrix(4.691610e-02 0 0 4.756524e-02 -5639.8301 -6905.2495)">
	</pattern>
	<polygon id="XMLID_193_" class="st35" points="3451.6,257.4 3289.2,330.6 3289.2,258.4 3451.6,185.2 	"/>
	<polygon id="XMLID_194_" class="st4" points="3306.7,322.5 3289.2,330.6 3289.2,258.4 3306.7,250.3 	"/>
	<path id="XMLID_195_" class="st3" d="M3451,547.2h-161.2c-0.3,0-0.6-0.3-0.6-0.6V258.8c0-0.2,0.1-0.5,0.4-0.6l161.2-72.6
		c0.4-0.2,0.9,0.1,0.9,0.6v360.4C3451.6,546.9,3451.4,547.2,3451,547.2z"/>
	
		<pattern  id="XMLID_234_" xlink:href="#Nouveau_motif_3" patternTransform="matrix(4.691610e-02 0 0 4.756524e-02 -5639.8301 -6905.2495)">
	</pattern>
	<polygon id="XMLID_196_" class="st36" points="3658.5,237.4 3451.6,330.6 3451.6,258.4 3658.5,165.2 	"/>
	<path id="XMLID_197_" class="st3" d="M3657.9,547.2h-205.6c-0.3,0-0.6-0.3-0.6-0.6V258.8c0-0.2,0.1-0.5,0.4-0.6l205.6-92.6
		c0.4-0.2,0.9,0.1,0.9,0.6v380.4C3658.5,546.9,3658.2,547.2,3657.9,547.2z"/>
	<line id="XMLID_198_" class="st33" x1="3180.5" y1="306.4" x2="3180.5" y2="545.8"/>
	<line id="XMLID_199_" class="st33" x1="3198.4" y1="299.4" x2="3198.4" y2="547.2"/>
	<line id="XMLID_200_" class="st33" x1="3216.5" y1="289.9" x2="3216.5" y2="545.8"/>
	<line class="st37" x1="3418" y1="351.9" x2="3322.8" y2="351.9"/>
	<line class="st38" x1="3289.2" y1="371.4" x2="3126.7" y2="371.4"/>
	<line class="st3" x1="3523.3" y1="430.1" x2="3523.3" y2="298.3"/>
	<line class="st3" x1="3505.2" y1="430.1" x2="3505.2" y2="306.4"/>
	<line class="st3" x1="3487.2" y1="430.1" x2="3487.2" y2="315.2"/>
	<line class="st3" x1="3613.6" y1="430.1" x2="3613.6" y2="257.7"/>
	<line class="st3" x1="3595.6" y1="430.1" x2="3595.6" y2="266.1"/>
	<line class="st3" x1="3631.6" y1="430.1" x2="3631.6" y2="250.3"/>
	<line class="st37" x1="3658.5" y1="430.8" x2="3451.6" y2="430.8"/>
	<line class="st37" x1="3418" y1="442" x2="3322.8" y2="442"/>
	<line class="st37" x1="3418" y1="396.9" x2="3322.8" y2="396.9"/>
	<line class="st37" x1="3418" y1="487.1" x2="3322.8" y2="487.1"/>
	<line id="XMLID_201_" class="st33" x1="3234.4" y1="283" x2="3234.4" y2="547.2"/>
	<line id="XMLID_202_" class="st33" x1="3252.5" y1="273.3" x2="3252.5" y2="545.8"/>
	<line id="XMLID_203_" class="st33" x1="3270.5" y1="266.3" x2="3270.5" y2="547.2"/>
	<path class="st4" d="M3617.8,447.5h-125.4c-0.3,0-0.5-0.2-0.5-0.5v-16.4c0-0.3,0.2-0.5,0.5-0.5h125.4c0.3,0,0.5,0.2,0.5,0.5V447
		C3618.3,447.2,3618.1,447.5,3617.8,447.5z"/>
	<line id="XMLID_204_" class="st37" x1="3501" y1="447.5" x2="3501" y2="546.1"/>
	<line id="XMLID_205_" class="st37" x1="3609.3" y1="447.5" x2="3609.3" y2="546.1"/>
	<polygon id="XMLID_206_" class="st4" points="3469.1,322.5 3451.6,330.6 3451.6,258.4 3469.1,250.3 	"/>
	<line id="XMLID_207_" class="st39" x1="3682.3" y1="534.8" x2="3682.3" y2="415.1"/>
	<line id="XMLID_208_" class="st39" x1="3707.7" y1="534.8" x2="3707.7" y2="456.7"/>
	<path class="st4" d="M3600.2,546.1h-90.5c-0.3,0-0.5-0.2-0.5-0.5v-90.5c0-0.3,0.2-0.5,0.5-0.5h90.5c0.3,0,0.5,0.2,0.5,0.5v90.5
		C3600.7,545.9,3600.4,546.1,3600.2,546.1z"/>
	<line id="XMLID_209_" class="st3" x1="3126.7" y1="330.6" x2="3289.2" y2="257.4"/>
	<line id="XMLID_210_" class="st3" x1="3289.2" y1="330.6" x2="3451.6" y2="257.4"/>
	<line id="XMLID_211_" class="st3" x1="3451.6" y1="330.6" x2="3658.5" y2="237.4"/>
</g>
<path id="XMLID_212_" class="st4" d="M2470.8,40v507.8H2701V40H2470.8z M2698.4,545.2h-225.1V42.5h225.1V545.2z"/>
<rect id="XMLID_216_" x="2417.3" y="41.2" class="st3" width="295.5" height="14.8"/>
</svg>
