<?xml version="1.0" encoding="UTF-8" standalone="no"?>
<!DOCTYPE svg PUBLIC "-//W3C//DTD SVG 1.1//EN" "http://www.w3.org/Graphics/SVG/1.1/DTD/svg11.dtd">
<svg version="1.1" xmlns="http://www.w3.org/2000/svg" xmlns:xlink="http://www.w3.org/1999/xlink" preserveAspectRatio="xMidYMid meet" viewBox="21.071888378896457 43.32110594262166 160.17611162110353 225.1868940573783" width="156.18" height="221.19"><defs><path d="M106.45 152.82L117.31 200.58L127.39 260.46L116.92 260.46L90.17 173.95L90.17 260.46C82.49 258.92 78.22 258.07 77.37 257.9C77.37 257.9 68.84 156.11 71.17 152.83C73.49 149.55 106.45 152.82 106.45 152.82" id="a2l3eKybLt"></path><path d="M107.08 265.51L127.05 265.51L127.05 258.11L116.07 258.11L107.08 265.51Z" id="bbU3CETsE"></path><path d="M123.3 96.56C124.08 98.84 147.73 168.72 147.73 168.72C146.8 169.13 139.36 172.4 138.43 172.81C138.43 172.81 116.32 124.31 115.55 126.06C114.77 127.8 106.24 160.29 106.24 160.29C102.52 160.08 72.74 158.34 69.02 158.12C69.02 158.12 73.28 139.03 74.06 137.22C74.83 135.41 63.34 146.99 52.41 151.7C41.48 156.41 38.77 156.05 38.77 156.05C38.77 154.89 38.77 145.62 38.77 144.46C38.77 144.46 65.14 130.34 69.4 122.73C73.67 115.13 80.65 104.53 85.3 99.69C89.95 94.85 96.16 94 96.16 94C97.22 93.81 102.52 92.87 112.06 91.18C119.04 93.26 122.79 95.05 123.3 96.56Z" id="a2iZGXMmp9"></path><path d="M89.99 264.03L62.25 262.68L76.05 256.76L89.92 256.63L89.99 264.03Z" id="b4bjwHaWr"></path><path d="M148 167.59L148.72 169.71L139.41 173.8L138.44 171.68L148 167.59Z" id="a2lb85N2Kb"></path><path d="M140.35 173.76C145.83 169.3 151.38 167.47 153.45 169.76C155.53 172.04 158.65 180.97 158.65 180.97C158.27 181.08 155.22 181.9 154.84 182C154.84 182 152.14 171.01 148.47 173.07C144.79 175.14 140.98 176.46 142.37 179.4C143.75 182.35 145.48 185.09 145.48 185.09C145.25 185.2 144.1 185.7 142.02 186.61C137.25 181.02 136.69 176.74 140.35 173.76Z" id="a5Iru563dT"></path><path d="M167.11 175.39L178.25 198.8L141.25 214.92L131.08 191.31L167.11 175.39Z" id="e2bfN4LzDK"></path><path d="M141.87 183.38C136.18 181.08 138.01 175.78 144.21 173.8C150.41 171.82 152.06 170.46 152.89 173.8C153.71 177.14 146.14 185.1 141.87 183.38" id="e2xzRBPXAj"></path><path d="M152.1 173.49C152.1 173.49 146.67 166.94 148.67 165.25C150.66 163.55 155.96 169.43 152.1 173.49" id="k6UiIso6aT"></path><path d="M158.65 195.16L168.2 177.69L160.8 200.79L134.35 192.6L158.65 195.16Z" id="cp9T3wJVJ"></path><path d="M89.98 49.91C89.98 49.91 84.88 79.84 86.92 83.42C88.96 87.01 97.47 88.59 97.47 88.59C97.47 88.59 99.85 88.51 97.47 91.4C95.08 94.3 101.89 97.47 101.89 97.47C102.57 97.05 105.98 94.98 112.1 91.25C115.58 68.89 117.51 56.46 117.89 53.97C117.89 53.97 109.72 35.33 89.98 49.91" id="a2nSbtbHbY"></path><path d="M94.76 68.22C95.11 65.8 93.35 64.4 92.82 66.24C92.29 68.08 89.91 69.62 89.6 71C89.29 72.38 91.37 74.83 92.18 73.91C93 72.99 94.23 71.89 94.76 68.22" id="aSpXaFFCm"></path><path d="M89.57 77.79C96.45 76.39 100.27 75.61 101.04 75.46C101.04 75.46 102.29 81.55 97.05 82.1C91.81 82.63 89.57 77.79 89.57 77.79" id="c33xN76zAY"></path><path d="M105.05 72.51C105.05 72.51 108.66 66.32 110.83 66.84C113 67.35 114.85 74.82 114.85 74.82C115.63 73.39 121.9 61.93 122.69 60.49C122.69 60.49 120.85 51.7 116.57 49.44C112.3 47.17 107.14 55.42 107.14 55.42C106.92 56.21 105.86 60.16 103.96 67.29C104.61 70.42 104.98 72.16 105.05 72.51Z" id="a1BN6PQPTT"></path><path d="M109.53 75.69C107.82 74.71 106.87 74.17 106.68 74.06C105.91 73.62 105.64 72.63 106.09 71.87C106.47 71.2 109.59 65.85 109.98 65.18C110.43 64.42 111.42 64.15 112.19 64.59C112.47 64.76 114.75 66.06 115.04 66.22C115.81 66.67 116.08 67.65 115.63 68.41C115.24 69.08 112.13 74.43 111.74 75.1C111.29 75.87 110.3 76.13 109.53 75.69" id="d1n1J2GR1U"></path><path d="M88.14 61.93C88.14 61.93 90.31 48.7 94.81 46.86C99.31 45.03 101.17 44.34 101.17 44.34C101.17 44.34 89.43 43.84 88.14 48.63C86.85 53.42 88.14 61.93 88.14 61.93" id="bNKe5et2P"></path><path d="M99.98 65.4C99.98 66.28 99.71 67 99.38 67C99.05 67 98.78 66.28 98.78 65.4C98.78 64.51 99.05 63.79 99.38 63.79C99.71 63.79 99.98 64.51 99.98 65.4" id="c2HBYJGJT7"></path><path d="M90.81 64.78C90.81 65.67 90.54 66.38 90.21 66.38C89.88 66.38 89.61 65.67 89.61 64.78C89.61 63.89 89.88 63.17 90.21 63.17C90.54 63.17 90.81 63.89 90.81 64.78" id="b1KEdKaq3"></path><path d="M92.24 118.14L114.11 96.35L110.87 94.63L92.24 97.24L92.24 118.14Z" id="ayOgvb4Bh"></path><path d="M26.92 142.87C25.96 144.62 32.72 146.2 32.72 146.2C32.72 146.2 22.17 145.29 22.15 147.79C22.13 150.29 21.2 154.82 26.28 157.12C31.37 159.41 41.15 155.47 41.15 155.47C40.99 154.71 40.19 150.92 38.75 144.1L36.34 144.62C30.69 142.28 27.55 141.7 26.92 142.87Z" id="fAIGWAnhB"></path><path d="M36.34 144.62L38.77 156.05L41.15 155.47L38.75 144.1L36.34 144.62Z" id="aanuN7Tql"></path><path d="M107.45 102.34L117.89 93.82L112.04 89.39L101.04 94.29L107.45 102.34Z" id="dH4PtDRcn"></path><path d="M104.06 98.3L101.67 100.59L98.44 108.73L93.33 145.23L85.99 154.5L80.78 145.27L97.65 100.33L96.65 95.15L102.06 94.59L104.06 98.3Z" id="gVgOP3fXG"></path><path d="M101.73 108.39L102.11 146.26L90 162.42L77.04 157.37L87.38 120.03L101.73 108.39Z" id="b9s071lMxb"></path><path d="M92.72 100.02L92.19 95.8L98.48 91.02L101.91 94.17L92.72 100.02Z" id="c1rJmRqaWD"></path><path d="M86.43 150.38L107.23 161.28L85.99 154.5L73.2 159.29L86.43 150.38Z" id="auCqxVdIc"></path></defs><g><g><use xlink:href="#a2l3eKybLt" opacity="1" fill="#0e143c" fill-opacity="1"></use><g><use xlink:href="#a2l3eKybLt" opacity="1" fill-opacity="0" stroke="#000000" stroke-width="1" stroke-opacity="0"></use></g></g><g><use xlink:href="#bbU3CETsE" opacity="1" fill="#110000" fill-opacity="1"></use><g><use xlink:href="#bbU3CETsE" opacity="1" fill-opacity="0" stroke="#000000" stroke-width="1" stroke-opacity="0"></use></g></g><g><use xlink:href="#a2iZGXMmp9" opacity="1" fill="#0e143c" fill-opacity="1"></use><g><use xlink:href="#a2iZGXMmp9" opacity="1" fill-opacity="0" stroke="#000000" stroke-width="1" stroke-opacity="0"></use></g></g><g><use xlink:href="#b4bjwHaWr" opacity="1" fill="#110000" fill-opacity="1"></use><g><use xlink:href="#b4bjwHaWr" opacity="1" fill-opacity="0" stroke="#000000" stroke-width="1" stroke-opacity="0"></use></g></g><g><use xlink:href="#a2lb85N2Kb" opacity="1" fill="#e1d7d4" fill-opacity="1"></use><g><use xlink:href="#a2lb85N2Kb" opacity="1" fill-opacity="0" stroke="#000000" stroke-width="1" stroke-opacity="0"></use></g></g><g><use xlink:href="#a5Iru563dT" opacity="1" fill="#b21c44" fill-opacity="1"></use><g><use xlink:href="#a5Iru563dT" opacity="1" fill-opacity="0" stroke="#000000" stroke-width="1" stroke-opacity="0"></use></g></g><g><use xlink:href="#e2bfN4LzDK" opacity="1" fill="#b21c44" fill-opacity="1"></use><g><use xlink:href="#e2bfN4LzDK" opacity="1" fill-opacity="0" stroke="#000000" stroke-width="1" stroke-opacity="0"></use></g></g><g><use xlink:href="#e2xzRBPXAj" opacity="1" fill="#fbc4b6" fill-opacity="1"></use><g><use xlink:href="#e2xzRBPXAj" opacity="1" fill-opacity="0" stroke="#000000" stroke-width="1" stroke-opacity="0"></use></g></g><g><use xlink:href="#k6UiIso6aT" opacity="1" fill="#fbc4b6" fill-opacity="1"></use><g><use xlink:href="#k6UiIso6aT" opacity="1" fill-opacity="0" stroke="#000000" stroke-width="1" stroke-opacity="0"></use></g></g><g><use xlink:href="#cp9T3wJVJ" opacity="1" fill="#991d1f" fill-opacity="1"></use><g><use xlink:href="#cp9T3wJVJ" opacity="1" fill-opacity="0" stroke="#000000" stroke-width="1" stroke-opacity="0"></use></g></g><g><use xlink:href="#a2nSbtbHbY" opacity="1" fill="#fbc4b6" fill-opacity="1"></use><g><use xlink:href="#a2nSbtbHbY" opacity="1" fill-opacity="0" stroke="#000000" stroke-width="1" stroke-opacity="0"></use></g></g><g><use xlink:href="#aSpXaFFCm" opacity="1" fill="#dc8b77" fill-opacity="1"></use><g><use xlink:href="#aSpXaFFCm" opacity="1" fill-opacity="0" stroke="#000000" stroke-width="1" stroke-opacity="0"></use></g></g><g><use xlink:href="#c33xN76zAY" opacity="1" fill="#fff3de" fill-opacity="1"></use><g><use xlink:href="#c33xN76zAY" opacity="1" fill-opacity="0" stroke="#000000" stroke-width="1" stroke-opacity="0"></use></g></g><g><use xlink:href="#a1BN6PQPTT" opacity="1" fill="#7c7768" fill-opacity="1"></use><g><use xlink:href="#a1BN6PQPTT" opacity="1" fill-opacity="0" stroke="#000000" stroke-width="1" stroke-opacity="0"></use></g></g><g><use xlink:href="#d1n1J2GR1U" opacity="1" fill="#e7a195" fill-opacity="1"></use><g><use xlink:href="#d1n1J2GR1U" opacity="1" fill-opacity="0" stroke="#000000" stroke-width="1" stroke-opacity="0"></use></g></g><g><use xlink:href="#bNKe5et2P" opacity="1" fill="#7c7768" fill-opacity="1"></use><g><use xlink:href="#bNKe5et2P" opacity="1" fill-opacity="0" stroke="#000000" stroke-width="1" stroke-opacity="0"></use></g></g><g><use xlink:href="#c2HBYJGJT7" opacity="1" fill="#000000" fill-opacity="1"></use><g><use xlink:href="#c2HBYJGJT7" opacity="1" fill-opacity="0" stroke="#000000" stroke-width="1" stroke-opacity="0"></use></g></g><g><use xlink:href="#b1KEdKaq3" opacity="1" fill="#000000" fill-opacity="1"></use><g><use xlink:href="#b1KEdKaq3" opacity="1" fill-opacity="0" stroke="#000000" stroke-width="1" stroke-opacity="0"></use></g></g><g><use xlink:href="#ayOgvb4Bh" opacity="1" fill="#feece5" fill-opacity="1"></use><g><use xlink:href="#ayOgvb4Bh" opacity="1" fill-opacity="0" stroke="#000000" stroke-width="1" stroke-opacity="0"></use></g></g><g><use xlink:href="#fAIGWAnhB" opacity="1" fill="#fbc4b6" fill-opacity="1"></use><g><use xlink:href="#fAIGWAnhB" opacity="1" fill-opacity="0" stroke="#000000" stroke-width="1" stroke-opacity="0"></use></g></g><g><use xlink:href="#aanuN7Tql" opacity="1" fill="#feece5" fill-opacity="1"></use><g><use xlink:href="#aanuN7Tql" opacity="1" fill-opacity="0" stroke="#000000" stroke-width="1" stroke-opacity="0"></use></g></g><g><use xlink:href="#dH4PtDRcn" opacity="1" fill="#e1d7d4" fill-opacity="1"></use><g><use xlink:href="#dH4PtDRcn" opacity="1" fill-opacity="0" stroke="#000000" stroke-width="1" stroke-opacity="0"></use></g></g><g><use xlink:href="#gVgOP3fXG" opacity="1" fill="#b21c44" fill-opacity="1"></use><g><use xlink:href="#gVgOP3fXG" opacity="1" fill-opacity="0" stroke="#000000" stroke-width="1" stroke-opacity="0"></use></g></g><g><use xlink:href="#b9s071lMxb" opacity="1" fill="#0e143c" fill-opacity="1"></use><g><use xlink:href="#b9s071lMxb" opacity="1" fill-opacity="0" stroke="#000000" stroke-width="1" stroke-opacity="0"></use></g></g><g><use xlink:href="#c1rJmRqaWD" opacity="1" fill="#e1d7d4" fill-opacity="1"></use><g><use xlink:href="#c1rJmRqaWD" opacity="1" fill-opacity="0" stroke="#000000" stroke-width="1" stroke-opacity="0"></use></g></g><g><use xlink:href="#auCqxVdIc" opacity="1" fill="#110000" fill-opacity="1"></use><g><use xlink:href="#auCqxVdIc" opacity="1" fill-opacity="0" stroke="#000000" stroke-width="1" stroke-opacity="0"></use></g></g></g></svg>